<svg width="48" height="48" viewBox="0 0 48 48" fill="none" xmlns="http://www.w3.org/2000/svg">
<path d="M35.499 28.0008C37.9843 28.0008 39.999 30.0155 39.999 32.5008V34.311C39.999 36.4983 39.0441 38.5767 37.3845 40.0015C34.2536 42.6895 29.7729 44.0031 23.9929 44.0031C18.2139 44.0031 13.7363 42.6899 10.6106 40.0025C8.95331 38.5778 8 36.501 8 34.3154V32.5008C8 30.0155 10.0147 28.0008 12.5 28.0008H35.499ZM35.499 31.0008H12.5C11.6716 31.0008 11 31.6724 11 32.5008V34.3154C11 35.6268 11.572 36.8728 12.5663 37.7277C15.0825 39.891 18.8745 41.0031 23.9929 41.0031C29.1129 41.0031 32.9085 39.8903 35.4303 37.7253C36.4261 36.8704 36.999 35.6234 36.999 34.311V32.5008C36.999 31.6724 36.3274 31.0008 35.499 31.0008ZM23.79 4.01565L23.9936 4.00195C24.753 4.00195 25.3806 4.56626 25.4799 5.29841L25.4936 5.50195L25.492 6.99995L32.4929 7.00096C34.9782 7.00096 36.9929 9.01568 36.9929 11.501V20.5101C36.9929 22.9954 34.9782 25.0101 32.4929 25.0101H15.4929C13.0076 25.0101 10.9929 22.9954 10.9929 20.5101V11.501C10.9929 9.01568 13.0076 7.00096 15.4929 7.00096L22.492 6.99995L22.4936 5.50195C22.4936 4.74256 23.0579 4.11497 23.79 4.01565L23.9936 4.00195L23.79 4.01565ZM32.4929 10.001H15.4929C14.6645 10.001 13.9929 10.6725 13.9929 11.501V20.5101C13.9929 21.3386 14.6645 22.0101 15.4929 22.0101H32.4929C33.3213 22.0101 33.9929 21.3386 33.9929 20.5101V11.501C33.9929 10.6725 33.3213 10.001 32.4929 10.001ZM19.4915 13.001C20.8714 13.001 21.9901 14.1196 21.9901 15.4995C21.9901 16.8795 20.8714 17.9981 19.4915 17.9981C18.1116 17.9981 16.9929 16.8795 16.9929 15.4995C16.9929 14.1196 18.1116 13.001 19.4915 13.001ZM28.477 13.001C29.8569 13.001 30.9755 14.1196 30.9755 15.4995C30.9755 16.8795 29.8569 17.9981 28.477 17.9981C27.097 17.9981 25.9784 16.8795 25.9784 15.4995C25.9784 14.1196 27.097 13.001 28.477 13.001Z" fill="url(#paint0_linear_4009_52037)"/>
<defs>
<linearGradient id="paint0_linear_4009_52037" x1="23.9995" y1="4.00195" x2="23.9995" y2="44.0031" gradientUnits="userSpaceOnUse">
<stop stop-color="#EA32FE"/>
<stop offset="1" stop-color="#FE663D"/>
</linearGradient>
</defs>
</svg>
