<svg width="49" height="48" viewBox="0 0 49 48" fill="none" xmlns="http://www.w3.org/2000/svg">
<path d="M12.1622 6C14.6465 6 16.6604 8.0139 16.6604 10.4982V37.5018C16.6604 39.9861 14.6465 42 12.1622 42C9.67796 42 7.66406 39.9861 7.66406 37.5018V10.4982C7.66406 8.0139 9.67796 6 12.1622 6ZM25.1622 14C27.6465 14 29.6604 16.0139 29.6604 18.4982V37.5018C29.6604 39.9861 27.6465 42 25.1622 42C22.678 42 20.6641 39.9861 20.6641 37.5018V18.4982C20.6641 16.0139 22.678 14 25.1622 14ZM38.1622 22C40.6465 22 42.6604 24.0139 42.6604 26.4982V37.5018C42.6604 39.9861 40.6465 42 38.1622 42C35.678 42 33.6641 39.9861 33.6641 37.5018V26.4982C33.6641 24.0139 35.678 22 38.1622 22ZM12.1622 9C11.3348 9 10.6641 9.67075 10.6641 10.4982V37.5018C10.6641 38.3292 11.3348 39 12.1622 39C12.9896 39 13.6604 38.3292 13.6604 37.5018V10.4982C13.6604 9.67075 12.9896 9 12.1622 9ZM25.1622 17C24.3348 17 23.6641 17.6708 23.6641 18.4982V37.5018C23.6641 38.3292 24.3348 39 25.1622 39C25.9896 39 26.6604 38.3292 26.6604 37.5018V18.4982C26.6604 17.6708 25.9896 17 25.1622 17ZM38.1622 25C37.3348 25 36.6641 25.6708 36.6641 26.4982V37.5018C36.6641 38.3292 37.3348 39 38.1622 39C38.9896 39 39.6604 38.3292 39.6604 37.5018V26.4982C39.6604 25.6708 38.9896 25 38.1622 25Z" fill="url(#paint0_linear_4009_52047)"/>
<defs>
<linearGradient id="paint0_linear_4009_52047" x1="25.1622" y1="6" x2="25.1622" y2="42" gradientUnits="userSpaceOnUse">
<stop stop-color="#EA32FE"/>
<stop offset="1" stop-color="#FE663D"/>
</linearGradient>
</defs>
</svg>
