<svg width="49" height="48" viewBox="0 0 49 48" fill="none" xmlns="http://www.w3.org/2000/svg">
<path d="M25.139 5.92773C24.6702 5.92773 24.2517 6.14277 23.9766 6.47957L23.8626 6.566C19.5737 5.26587 14.7216 6.30091 11.3297 9.67113C8.31258 12.6689 7.15497 16.8147 7.85686 20.6933L7.82682 20.7229L5.91251 22.6249C4.24791 24.2789 4.24791 26.9605 5.91251 28.6144C6.89044 29.5861 8.22533 29.9869 9.49776 29.8169C9.68526 30.5094 10.0525 31.1639 10.5995 31.7074C11.343 32.4462 12.2928 32.8549 13.2647 32.9338C13.3439 33.8996 13.7553 34.8436 14.4989 35.5825C15.2768 36.3553 16.2804 36.767 17.2988 36.8176C17.3499 37.8293 17.7642 38.8263 18.5419 39.599C20.0624 41.1098 22.446 41.2405 24.1159 39.9911L24.889 40.7592C26.5616 42.4212 29.2736 42.4212 30.9462 40.7592C31.6872 40.023 32.0998 39.0847 32.1843 38.1233C33.1502 38.0411 34.0931 37.6328 34.8326 36.898C35.5738 36.1615 35.985 35.2218 36.0663 34.2597C37.0195 34.1706 37.9483 33.7634 38.6786 33.0377C39.2509 32.4691 39.6265 31.7791 39.8054 31.0511C41.0587 31.1997 42.3657 30.7962 43.3275 29.8406C44.9921 28.1867 44.9921 25.5051 43.3275 23.8512L41.6606 22.1949L42.0031 20.8618C42.7478 17.9632 42.3732 14.893 40.9542 12.2561C38.8591 8.36308 34.7807 5.93775 30.3474 5.93775L27.1339 5.93775C26.997 5.9311 26.8593 5.92773 26.721 5.92773H25.139ZM30.9875 15.818L37.9148 22.701L37.9227 22.7092L37.9493 22.7364L41.1994 25.9657C41.6886 26.4518 41.6886 27.24 41.1994 27.7261C40.7101 28.2123 39.9168 28.2123 39.4276 27.7261L36.1775 24.4969C35.5899 23.913 34.6371 23.913 34.0494 24.4969L34.0169 24.5292C33.4292 25.1131 33.4292 26.0598 34.0169 26.6437L36.5505 29.1611C37.0402 29.6477 37.0402 30.4366 36.5505 30.9232C36.1042 31.3667 35.4026 31.4066 34.9125 31.0402C34.311 30.5906 33.4678 30.6517 32.9384 31.1831C32.4089 31.7146 32.356 32.553 32.8145 33.1459C33.1914 33.6333 33.1539 34.337 32.7045 34.7835C32.2513 35.2338 31.5355 35.2678 31.0446 34.8838C30.4471 34.4164 29.5925 34.4654 29.053 34.998C28.5136 35.5306 28.4589 36.3794 28.9255 36.9761C29.3128 37.4713 29.2763 38.1895 28.8181 38.6447C28.3208 39.1389 27.5144 39.1389 27.0171 38.6447L26.2737 37.9061L26.4842 37.6969C28.1488 36.0429 28.1488 33.3614 26.4842 31.7074C25.7064 30.9346 24.7028 30.5229 23.6843 30.4723C23.6333 29.4606 23.2189 28.4636 22.4413 27.691C21.6978 26.9522 20.748 26.5435 19.7762 26.4646C19.697 25.4988 19.2855 24.5548 18.5419 23.8159C17.5639 22.8442 16.2291 22.4434 14.9566 22.6134C14.7691 21.9209 14.4019 21.2664 13.8549 20.7229C12.9922 19.8657 11.8517 19.4528 10.7214 19.4841C10.4278 16.7386 11.3399 13.8899 13.4578 11.7856C15.4262 9.82977 18.0419 8.90886 20.6197 9.02289L17.6248 11.2919C15.5771 12.8434 15.1826 15.7579 16.7443 17.7979C18.3024 19.8332 21.2186 20.228 23.2617 18.68L27.0393 15.818H30.9875ZM19.4365 13.6831L25.7131 8.92773H26.721C26.8199 8.92773 26.9181 8.93038 27.0154 8.9356C27.0422 8.93704 27.0689 8.93775 27.0957 8.93775H30.3474C33.6837 8.93775 36.7438 10.7629 38.3124 13.6777C39.3019 15.5163 39.6123 17.6347 39.2001 19.6681L32.7759 13.2752C32.4933 12.983 32.1042 12.818 31.6976 12.818L26.5352 12.818C26.2082 12.818 25.8901 12.9249 25.6294 13.1224L21.4501 16.2888C20.7229 16.8397 19.6809 16.6987 19.1264 15.9743C18.5754 15.2546 18.7141 14.2305 19.4365 13.6831ZM12.7276 29.5929C12.3918 29.2593 12.2865 28.7833 12.4117 28.3604C12.4688 28.1671 12.5742 27.9849 12.7276 27.8325L14.6419 25.9304C15.1312 25.4443 15.9245 25.4443 16.4138 25.9304C16.8974 26.411 16.903 27.1868 16.4303 27.6741L16.4132 27.691L14.4989 29.593L14.4824 29.6095C14.3325 29.753 14.1555 29.8521 13.9681 29.9069C13.5425 30.0312 13.0634 29.9266 12.7276 29.5929ZM11.7451 22.856C11.8961 23.0123 11.998 23.1981 12.0509 23.3943C12.1629 23.8098 12.0549 24.2718 11.7267 24.5979L9.81243 26.4999C9.32316 26.9861 8.5299 26.9861 8.04063 26.4999C7.55136 26.0138 7.55136 25.2256 8.04063 24.7395L9.95494 22.8374C10.4442 22.3512 11.2375 22.3512 11.7267 22.8374L11.7451 22.856ZM22.4418 37.4845C22.2881 37.6372 22.1043 37.742 21.9094 37.7987C21.484 37.9226 21.0055 37.8178 20.67 37.4845C20.3344 37.1511 20.229 36.6756 20.3537 36.253C20.4108 36.0593 20.5162 35.8767 20.67 35.724L22.5843 33.8219C23.0736 33.3358 23.8668 33.3358 24.3561 33.8219C24.8454 34.3081 24.8454 35.0963 24.3561 35.5824L22.4418 37.4845ZM18.3989 33.468C18.2455 33.6204 18.0623 33.725 17.868 33.7818C17.4422 33.9064 16.963 33.8018 16.6271 33.468C16.2911 33.1342 16.1858 32.658 16.3112 32.235C16.3663 32.0489 16.4661 31.8732 16.6105 31.7243L16.6276 31.7074L18.5419 29.8054L18.5584 29.7889C19.0488 29.3194 19.8295 29.3249 20.3132 29.8055C20.8024 30.2916 20.8024 31.0798 20.3132 31.5659L18.3989 33.468Z" fill="url(#paint0_linear_4009_52031)"/>
<defs>
<linearGradient id="paint0_linear_4009_52031" x1="24.62" y1="5.92773" x2="24.62" y2="42.0057" gradientUnits="userSpaceOnUse">
<stop stop-color="#EA32FE"/>
<stop offset="1" stop-color="#FE663D"/>
</linearGradient>
</defs>
</svg>
