<svg width="57" height="56" viewBox="0 0 57 56" fill="none" xmlns="http://www.w3.org/2000/svg">
<path d="M14.9141 4.6665C12.0146 4.6665 9.66406 7.01701 9.66406 9.9165V46.0832C9.66406 48.9827 12.0146 51.3332 14.9141 51.3332H32.4151C35.2981 51.3332 37.6384 49.0093 37.6649 46.1326L37.6656 46.0834V42.5834C37.6656 41.6169 36.8821 40.8334 35.9156 40.8334C34.8567 40.8334 34.1904 40.5486 33.7296 40.1781C33.2442 39.7878 32.844 39.1858 32.5373 38.3366C31.9011 36.5751 31.8324 34.2523 31.8322 32.0833C31.8322 31.64 31.664 31.2134 31.3615 30.8893C31.1836 30.6987 31.064 30.5694 30.9779 30.4764C30.767 30.2484 30.757 30.2377 30.5801 30.0713C30.4076 29.909 29.881 29.406 27.8197 27.3457C26.7266 26.253 26.1204 25.3285 25.922 24.622C25.8312 24.2986 25.8359 24.0569 25.8857 23.8626C25.9352 23.6699 26.0565 23.4166 26.3632 23.1098C26.6699 22.803 26.9225 22.6823 27.1141 22.6332C27.3072 22.5838 27.5478 22.5792 27.8708 22.6703C28.5767 22.8694 29.5007 23.4767 30.5943 24.571C31.8534 25.8309 33.0499 27.0141 34.1217 28.074C35.8938 29.8264 37.3267 31.2434 38.1363 32.1108C38.7958 32.8174 39.9032 32.8556 40.6097 32.1961C41.3163 31.5366 41.3544 30.4292 40.695 29.7227C40.0311 29.0114 38.9639 27.9437 37.6646 26.6559L37.6644 18.8072L44.2942 25.437C45.2787 26.4216 45.8319 27.7569 45.8319 29.1493V49.5832C45.8319 50.5497 46.6154 51.3332 47.5819 51.3332C48.5484 51.3332 49.3319 50.5497 49.3319 49.5832V29.1493C49.3319 26.8287 48.41 24.6031 46.7691 22.9622L37.6643 13.8574L37.6642 9.91637C37.6641 7.01693 35.3136 4.6665 32.4142 4.6665H14.9141ZM31.5364 42.9058C32.2861 43.5085 33.1646 43.9286 34.1651 44.1502L34.1651 44.3332H32.4152C31.4487 44.3332 30.6652 45.1167 30.6652 46.0832V47.8332H27.1652V46.0832C27.1652 43.9986 28.3801 42.1978 30.1405 41.3502C30.514 41.9217 30.9723 42.4522 31.5364 42.9058ZM28.3345 32.7735C28.339 33.3638 28.3518 34.0018 28.3875 34.6633C27.0542 35.6098 25.4247 36.1663 23.6651 36.1663C19.1548 36.1663 15.4985 32.51 15.4985 27.9996C15.4985 23.4893 19.1548 19.833 23.6651 19.833C24.0399 19.833 24.4087 19.8582 24.7701 19.9071C24.4589 20.1145 24.1647 20.3585 23.888 20.6352C23.2058 21.3176 22.723 22.1063 22.4955 22.9928C22.2685 23.8777 22.3234 24.7527 22.5523 25.5681C22.9934 27.1393 24.1047 28.581 25.3454 29.8211C27.4062 31.8809 27.9666 32.4179 28.182 32.6206C28.1954 32.6332 28.2054 32.6424 28.2132 32.6495C28.2213 32.6568 28.227 32.6618 28.2315 32.6658L28.2406 32.6739C28.2528 32.6851 28.2641 32.6973 28.3252 32.7635L28.3345 32.7735ZM16.6652 8.1665H20.1652V9.91536C20.1652 12.8149 17.8147 15.1654 14.9152 15.1654H13.1641V11.6654H14.9152C15.8817 11.6654 16.6652 10.8819 16.6652 9.91536V8.1665ZM27.1652 8.1665H30.6652V9.91536C30.6652 10.8819 31.4487 11.6654 32.4152 11.6654H34.1642L34.1643 15.1654H32.4152C29.5157 15.1654 27.1652 12.8149 27.1652 9.91536V8.1665ZM20.1652 47.8332H16.6652V46.0832C16.6652 45.1167 15.8817 44.3332 14.9152 44.3332H13.1641V40.8332H14.9152C17.8147 40.8332 20.1652 43.1837 20.1652 46.0832V47.8332Z" fill="url(#paint0_radial_4009_52001)"/>
<defs>
<radialGradient id="paint0_radial_4009_52001" cx="0" cy="0" r="1" gradientUnits="userSpaceOnUse" gradientTransform="translate(18.408 -21.0397) rotate(74.1804) scale(71.5225 58.4879)">
<stop stop-color="#20FFFA"/>
<stop offset="0.716998" stop-color="#FF20FF"/>
<stop offset="1" stop-color="#FF741A"/>
</radialGradient>
</defs>
</svg>
