<svg width="49" height="48" viewBox="0 0 49 48" fill="none" xmlns="http://www.w3.org/2000/svg">
<path d="M35.3289 24.0005C41.404 24.0005 46.3289 28.9254 46.3289 35.0005C46.3289 41.0756 41.404 46.0005 35.3289 46.0005C29.2537 46.0005 24.3289 41.0756 24.3289 35.0005C24.3289 28.9254 29.2537 24.0005 35.3289 24.0005ZM30.036 34.2934C29.6454 33.9029 29.0123 33.9029 28.6217 34.2934C28.2312 34.6839 28.2312 35.3171 28.6217 35.7076L32.6217 39.7076C33.0123 40.0981 33.6454 40.0981 34.036 39.7076L42.036 31.7076C42.4265 31.3171 42.4265 30.6839 42.036 30.2934C41.6454 29.9029 41.0123 29.9029 40.6217 30.2934L33.3289 37.5863L30.036 34.2934ZM24.3734 27.9991C23.78 28.9257 23.3009 29.9326 22.9561 30.9998L8.83369 31.0004C8.0065 31.0004 7.33594 31.6709 7.33594 32.4981V33.6535C7.33594 34.7248 7.71816 35.761 8.41387 36.5757C10.9205 39.5111 14.8522 41.0027 20.3289 41.0027C21.5217 41.0027 22.6415 40.9319 23.6893 40.7908C24.1797 41.7806 24.7948 42.6978 25.5124 43.5235C23.9213 43.844 22.1916 44.0027 20.3289 44.0027C14.0371 44.0027 9.2651 42.1923 6.1325 38.5238C4.97297 37.166 4.33594 35.439 4.33594 33.6535V32.4981C4.33594 30.0141 6.34965 28.0004 8.83369 28.0004L24.3734 27.9991ZM20.3289 4.00977C25.8517 4.00977 30.3289 8.48692 30.3289 14.0098C30.3289 19.5326 25.8517 24.0098 20.3289 24.0098C14.806 24.0098 10.3289 19.5326 10.3289 14.0098C10.3289 8.48692 14.806 4.00977 20.3289 4.00977ZM20.3289 7.00977C16.4629 7.00977 13.3289 10.1438 13.3289 14.0098C13.3289 17.8758 16.4629 21.0098 20.3289 21.0098C24.1948 21.0098 27.3289 17.8758 27.3289 14.0098C27.3289 10.1438 24.1948 7.00977 20.3289 7.00977Z" fill="url(#paint0_linear_4009_52026)"/>
<defs>
<linearGradient id="paint0_linear_4009_52026" x1="25.3324" y1="4.00977" x2="25.3324" y2="46.0005" gradientUnits="userSpaceOnUse">
<stop stop-color="#EA32FE"/>
<stop offset="1" stop-color="#FE663D"/>
</linearGradient>
</defs>
</svg>
