<svg width="56" height="56" viewBox="0 0 56 56" fill="none" xmlns="http://www.w3.org/2000/svg">
<path d="M39.6667 9.33317C38.378 9.33317 37.3333 8.2885 37.3333 6.99984C37.3333 5.71117 38.378 4.6665 39.6667 4.6665H49C50.2887 4.6665 51.3333 5.71117 51.3333 6.99984V16.3332C51.3333 17.6218 50.2887 18.6665 49 18.6665C47.7113 18.6665 46.6667 17.6218 46.6667 16.3332V12.633L33.1499 26.1498C32.2387 27.061 30.7613 27.061 29.8501 26.1498L23.3333 19.633L10.9832 31.9831C10.072 32.8943 8.59464 32.8943 7.68342 31.9831C6.77219 31.0719 6.77219 29.5945 7.68342 28.6833L21.6834 14.6833C22.121 14.2457 22.7145 13.9998 23.3333 13.9998C23.9522 13.9998 24.5457 14.2457 24.9832 14.6833L31.5 21.2L43.3668 9.33317H39.6667ZM11.6667 41.9998V48.9998C11.6667 50.2885 10.622 51.3332 9.33333 51.3332C8.04467 51.3332 7 50.2885 7 48.9998V41.9998C7 40.7112 8.04467 39.6665 9.33333 39.6665C10.622 39.6665 11.6667 40.7112 11.6667 41.9998ZM23.3333 32.6665C23.3333 31.3778 22.2887 30.3332 21 30.3332C19.7113 30.3332 18.6667 31.3778 18.6667 32.6665V48.9998C18.6667 50.2885 19.7113 51.3332 21 51.3332C22.2887 51.3332 23.3333 50.2885 23.3333 48.9998V32.6665ZM32.6667 34.9998C33.9553 34.9998 35 36.0445 35 37.3332V48.9998C35 50.2885 33.9553 51.3332 32.6667 51.3332C31.378 51.3332 30.3333 50.2885 30.3333 48.9998V37.3332C30.3333 36.0445 31.378 34.9998 32.6667 34.9998ZM46.6667 25.6665C46.6667 24.3778 45.622 23.3332 44.3333 23.3332C43.0447 23.3332 42 24.3778 42 25.6665V48.9998C42 50.2885 43.0447 51.3332 44.3333 51.3332C45.622 51.3332 46.6667 50.2885 46.6667 48.9998V25.6665Z" fill="url(#paint0_radial_4009_51997)"/>
<defs>
<radialGradient id="paint0_radial_4009_51997" cx="0" cy="0" r="1" gradientUnits="userSpaceOnUse" gradientTransform="translate(16.7724 -21.0397) rotate(72.4287) scale(72.1814 64.7702)">
<stop stop-color="#20FFFA"/>
<stop offset="0.716998" stop-color="#FF20FF"/>
<stop offset="1" stop-color="#FF741A"/>
</radialGradient>
</defs>
</svg>
