<svg width="49" height="48" viewBox="0 0 49 48" fill="none" xmlns="http://www.w3.org/2000/svg">
<path d="M32.8359 26C32.0075 26 31.3359 26.6716 31.3359 27.5C31.3359 28.3284 32.0075 29 32.8359 29H36.8359C37.6644 29 38.3359 28.3284 38.3359 27.5C38.3359 26.6716 37.6644 26 36.8359 26H32.8359ZM38.8359 11.5C38.8359 8.46243 36.3735 6 33.3359 6H10.8359C8.35066 6 6.33594 8.01472 6.33594 10.5C6.33594 10.6067 6.33965 10.7125 6.34695 10.8173C6.33968 10.8772 6.33594 10.9382 6.33594 11V35.5C6.33594 39.0899 9.24609 42 12.8359 42H37.8359C40.8735 42 43.3359 39.5376 43.3359 36.5V17.5C43.3359 14.8039 41.3961 12.5609 38.8359 12.0907V11.5ZM9.33594 10.5C9.33594 9.67157 10.0075 9 10.8359 9H33.3359C34.7166 9 35.8359 10.1193 35.8359 11.5V12H10.8359C10.0075 12 9.33594 11.3284 9.33594 10.5ZM10.8359 15H37.8359C39.2167 15 40.3359 16.1193 40.3359 17.5V36.5C40.3359 37.8807 39.2167 39 37.8359 39H12.8359C10.9029 39 9.33594 37.433 9.33594 35.5V14.7439C9.80511 14.9098 10.31 15 10.8359 15Z" fill="url(#paint0_linear_4009_52042)"/>
<defs>
<linearGradient id="paint0_linear_4009_52042" x1="24.8359" y1="6" x2="24.8359" y2="42" gradientUnits="userSpaceOnUse">
<stop stop-color="#EA32FE"/>
<stop offset="1" stop-color="#FE663D"/>
</linearGradient>
</defs>
</svg>
