<svg width="57" height="56" viewBox="0 0 57 56" fill="none" xmlns="http://www.w3.org/2000/svg">
<path d="M9.0625 12.5999C9.0625 10.2803 10.9429 8.3999 13.2625 8.3999H41.2625C43.5821 8.3999 45.4625 10.2803 45.4625 12.5999V14.2389C47.0938 14.8155 48.2625 16.3712 48.2625 18.1999V43.3999C48.2625 45.7195 46.3821 47.5999 44.0625 47.5999H16.0625C12.1965 47.5999 9.0625 44.4659 9.0625 40.5999V12.5999ZM11.8625 12.5999C11.8625 13.3731 12.4893 13.9999 13.2625 13.9999H42.6625V12.5999C42.6625 11.8267 42.0357 11.1999 41.2625 11.1999H13.2625C12.4893 11.1999 11.8625 11.8267 11.8625 12.5999ZM41.2625 30.7999H38.4625C37.6893 30.7999 37.0625 31.4267 37.0625 32.1999C37.0625 32.9731 37.6893 33.5999 38.4625 33.5999H41.2625C42.0357 33.5999 42.6625 32.9731 42.6625 32.1999C42.6625 31.4267 42.0357 30.7999 41.2625 30.7999Z" fill="url(#paint0_radial_4009_51993)"/>
<defs>
<radialGradient id="paint0_radial_4009_51993" cx="0" cy="0" r="1" gradientUnits="userSpaceOnUse" gradientTransform="translate(17.7033 -13.1933) rotate(71.5651) scale(60.9301 56.9906)">
<stop stop-color="#20FFFA"/>
<stop offset="0.716998" stop-color="#FF20FF"/>
<stop offset="1" stop-color="#FF741A"/>
</radialGradient>
</defs>
</svg>
