<svg width="198" height="38" viewBox="0 0 198 38" fill="none" xmlns="http://www.w3.org/2000/svg">
<path fill-rule="evenodd" clip-rule="evenodd" d="M17.7031 9.01416L14.3754 18.3475H19.0028L21.6975 10.3027L24.3866 18.3475H29.0141L25.6863 9.01416H17.7031ZM30.3642 22.1682L33.6695 31.4792H28.7676L25.6583 22.1682H30.3642ZM13.0253 22.1682L9.70312 31.5016H14.6219L17.7311 22.1682H13.0253Z" fill="#FF6600"/>
<path fill-rule="evenodd" clip-rule="evenodd" d="M36.0049 37.9888C39.2703 35.1219 41.5997 31.3406 42.6913 27.1347C43.783 22.9287 43.5867 18.4919 42.1277 14.3988C40.6688 10.3057 38.0145 6.74497 34.5086 4.17775C31.0027 1.61053 26.8068 0.15511 22.4643 0L24.1449 4.71148C27.2335 5.15744 30.1417 6.43799 32.5561 8.41506C34.9704 10.3921 36.7994 12.9907 37.8456 15.9307C38.8919 18.8706 39.1159 22.0404 38.4933 25.0983C37.8708 28.1561 36.4254 30.986 34.313 33.2829L35.9937 38L36.0049 37.9888ZM20.9068 0C16.5657 0.158296 12.372 1.61601 8.86865 4.18445C5.36527 6.75289 2.71352 10.3138 1.25663 14.4062C-0.200251 18.4987 -0.395183 22.9342 0.697072 27.1387C1.78933 31.3431 4.11847 35.1229 7.38302 37.9888L9.06369 33.2717C6.95128 30.9748 5.50589 28.1449 4.88336 25.087C4.26083 22.0292 4.48477 18.8594 5.53105 15.9195C6.57732 12.9795 8.40624 10.3809 10.8206 8.40386C13.235 6.42679 16.1432 5.14624 19.2318 4.70028L20.9068 0Z" fill="#FF6600"/>
<path fill-rule="evenodd" clip-rule="evenodd" d="M147.547 14.919C145.886 14.9245 144.264 15.4221 142.886 16.3488C141.508 17.2755 140.435 18.5899 139.804 20.1259C139.172 21.6619 139.009 23.3506 139.337 24.9789C139.664 26.6071 140.467 28.1018 141.643 29.2743C142.819 30.4467 144.317 31.2443 145.946 31.5662C147.575 31.8882 149.264 31.7202 150.798 31.0833C152.331 30.4465 153.642 29.3694 154.564 27.9881C155.486 26.6068 155.979 24.9832 155.979 23.3224C155.979 22.2164 155.76 21.1214 155.336 20.1C154.912 19.0787 154.291 18.151 153.507 17.3704C152.724 16.5897 151.794 15.9713 150.772 15.5506C149.749 15.1299 148.653 14.9153 147.547 14.919ZM147.547 18.5661C148.492 18.5661 149.416 18.8463 150.202 19.3714C150.988 19.8965 151.6 20.6428 151.962 21.516C152.324 22.3892 152.419 23.3501 152.234 24.277C152.05 25.204 151.595 26.0555 150.926 26.7238C150.258 27.3921 149.406 27.8473 148.48 28.0317C147.553 28.216 146.592 28.1214 145.718 27.7597C144.845 27.398 144.099 26.7855 143.574 25.9997C143.049 25.2138 142.769 24.2899 142.769 23.3448C142.769 22.0774 143.272 20.8619 144.168 19.9657C145.064 19.0695 146.28 18.5661 147.547 18.5661Z" fill="white" fill-opacity="0.92"/>
<path fill-rule="evenodd" clip-rule="evenodd" d="M98.4921 14.919C103.198 14.919 106.173 18.8406 106.173 23.3224C106.173 27.8042 103.198 31.7258 98.4921 31.7258C97.578 31.7231 96.6735 31.5389 95.8311 31.1841C94.9887 30.8292 94.2251 30.3107 93.5846 29.6585V31.4177H89.9375V8.85742H93.4333V17.1263C94.0761 16.4282 94.8551 15.8692 95.7223 15.4838C96.5895 15.0984 97.5264 14.8948 98.4753 14.8854L98.4921 14.919ZM97.9935 28.3644C100.795 28.3644 102.43 26.0059 102.43 23.3672C102.43 20.7286 100.806 18.37 97.9935 18.37C95.1812 18.37 93.5117 20.7006 93.5117 23.3672C93.5117 26.0339 95.17 28.3308 97.9935 28.3308V28.3644Z" fill="white" fill-opacity="0.92"/>
<path fill-rule="evenodd" clip-rule="evenodd" d="M71.9651 31.4623L70.1948 26.4876H59.3993L57.6234 31.4623H53.7578L61.7522 9.01416H67.8418L75.8418 31.4623H71.9651ZM64.3573 12.566L60.6654 22.9357H68.9287L65.2312 12.566H64.3573Z" fill="white" fill-opacity="0.92"/>
<path fill-rule="evenodd" clip-rule="evenodd" d="M197.443 15.2271V31.4623H193.796V18.7172H188.928V31.4623H185.281V18.7172H180.413V31.4623H176.766V15.2271H197.443Z" fill="white" fill-opacity="0.92"/>
<path fill-rule="evenodd" clip-rule="evenodd" d="M125.901 18.7174H121.553V27.9667H125.592V31.4625H117.906V18.7174H114.797V15.2272H117.906V11.188H121.553V15.2272H125.901V18.7174Z" fill="white" fill-opacity="0.92"/>
<path fill-rule="evenodd" clip-rule="evenodd" d="M109.047 31.115V15.2271H112.694V31.4623H109.047V31.115Z" fill="white" fill-opacity="0.92"/>
<path d="M112.887 9.01416H108.898V13.1262H112.887V9.01416Z" fill="white" fill-opacity="0.92"/>
<path fill-rule="evenodd" clip-rule="evenodd" d="M87.6781 15.2271V18.7172H81.1627V31.4623H77.5156V15.2271H87.6781Z" fill="white" fill-opacity="0.92"/>
<path fill-rule="evenodd" clip-rule="evenodd" d="M138.787 15.2271V18.7172H132.272V31.4623H128.625V15.2271H138.787Z" fill="white" fill-opacity="0.92"/>
<path fill-rule="evenodd" clip-rule="evenodd" d="M166.099 14.9189C164.437 14.9189 162.812 15.4118 161.43 16.3352C160.048 17.2585 158.971 18.571 158.335 20.1065C157.699 21.642 157.533 23.3316 157.857 24.9617C158.181 26.5918 158.981 28.0892 160.157 29.2644C161.332 30.4396 162.829 31.24 164.459 31.5642C166.089 31.8885 167.779 31.722 169.315 31.086C170.85 30.45 172.162 29.3729 173.086 27.991C174.009 26.609 174.502 24.9843 174.502 23.3223C174.502 21.0936 173.617 18.9562 172.041 17.3802C170.465 15.8043 168.327 14.9189 166.099 14.9189ZM166.099 18.566C167.044 18.566 167.968 18.8463 168.754 19.3714C169.539 19.8965 170.152 20.6428 170.514 21.516C170.875 22.3892 170.97 23.35 170.786 24.277C170.601 25.204 170.146 26.0555 169.478 26.7238C168.809 27.3921 167.958 27.8472 167.031 28.0316C166.104 28.216 165.143 28.1214 164.27 27.7597C163.397 27.398 162.65 26.7855 162.125 25.9996C161.6 25.2138 161.32 24.2899 161.32 23.3447C161.321 22.0778 161.825 20.8632 162.721 19.9673C163.617 19.0714 164.832 18.5675 166.099 18.566Z" fill="white" fill-opacity="0.92"/>
</svg>
