<svg width="583" height="352" viewBox="0 0 583 352" fill="none" xmlns="http://www.w3.org/2000/svg">
<g filter="url(#filter0_f_4214_51214)">
<ellipse cx="289.559" cy="176.98" rx="158.859" ry="70.5" transform="rotate(-16.6018 289.559 176.98)" fill="#FF00FF" fill-opacity="0.16"/>
</g>
<g filter="url(#filter1_d_4214_51214)">
<path fill-rule="evenodd" clip-rule="evenodd" d="M291.792 158.264C291.864 157.707 291.907 157.12 291.907 156.535C291.907 148.531 285.389 142 277.372 142C269.368 142 262.851 148.532 262.851 156.535C262.851 157.178 262.894 157.821 262.98 158.435C263.565 158.321 264.18 158.264 264.809 158.264H265.352C265.267 157.692 265.224 157.12 265.224 156.535C265.224 149.832 270.669 144.372 277.372 144.372C284.075 144.372 289.535 149.832 289.535 156.535C289.535 157.12 289.492 157.692 289.406 158.264L291.792 158.264ZM310.645 172.957C304.528 172.957 299.554 177.944 299.554 184.062V184.062C299.554 187.034 300.698 189.807 302.799 191.907C304.9 194.022 307.687 195.166 310.645 195.166H321.379V205.471C321.379 206.314 320.707 207 319.849 207H264.81C260.594 207 257.164 203.57 257.164 199.354V168.768C257.164 164.552 260.594 161.122 264.81 161.122H319.849C320.707 161.122 321.379 161.808 321.379 162.652V172.957H310.645ZM302.604 184.063C302.604 179.614 306.197 176.021 310.646 176.021L324.238 176.021C325.094 176.021 325.767 176.694 325.767 177.55V190.576C325.767 191.417 325.094 192.105 324.238 192.105H310.646C308.414 192.105 306.411 191.203 304.959 189.751C303.506 188.298 302.604 186.28 302.604 184.063ZM306.641 184.063C306.641 186.586 308.69 188.65 311.228 188.65C313.765 188.65 315.814 186.586 315.815 184.063C315.815 181.525 313.766 179.476 311.228 179.476C308.69 179.476 306.641 181.525 306.641 184.063ZM268.183 156.534C268.183 151.46 272.299 147.329 277.373 147.329H277.373C282.447 147.329 286.577 151.46 286.578 156.534C286.578 157.12 286.521 157.691 286.421 158.263C286.421 158.27 286.417 158.281 286.413 158.292L286.413 158.292C286.41 158.302 286.406 158.313 286.406 158.32H268.355C268.355 158.313 268.351 158.302 268.347 158.292C268.344 158.281 268.34 158.27 268.34 158.263C268.24 157.691 268.183 157.119 268.183 156.534ZM312.544 149.745L309.857 150.617C309.658 150.674 309.543 150.903 309.615 151.103L312.102 158.264H315.874L313.016 149.988C312.944 149.788 312.73 149.688 312.544 149.745ZM304.703 146.259L308.877 158.264L294.885 158.264C294.942 157.692 294.971 157.106 294.971 156.535C294.971 154.162 294.499 151.918 293.656 149.875C293.57 149.66 293.67 149.432 293.884 149.375L304.232 146.016C304.418 145.959 304.632 146.059 304.703 146.259Z" fill="url(#paint0_radial_4214_51214)"/>
</g>
<g filter="url(#filter2_d_4214_51214)">
<path d="M189.196 149.96C189.607 149.375 190.37 149.156 191.029 149.434C191.923 149.81 192.241 150.916 191.683 151.709L176.684 173.039C176.273 173.624 175.509 173.843 174.85 173.566C173.956 173.189 173.639 172.083 174.197 171.29L189.196 149.96ZM174.84 160.954C174.001 160.954 173.229 160.819 172.526 160.548C171.846 160.277 171.256 159.894 170.757 159.398C170.281 158.902 169.907 158.315 169.635 157.639C169.363 156.939 169.227 156.173 169.227 155.338V155C169.227 154.165 169.363 153.41 169.635 152.733C169.907 152.034 170.281 151.436 170.757 150.94C171.256 150.444 171.846 150.061 172.526 149.79C173.229 149.519 174.001 149.384 174.84 149.384C175.679 149.384 176.439 149.519 177.119 149.79C177.799 150.061 178.389 150.444 178.888 150.94C179.387 151.436 179.772 152.034 180.045 152.733C180.317 153.41 180.453 154.165 180.453 155V155.338C180.453 156.173 180.317 156.939 180.045 157.639C179.772 158.315 179.387 158.902 178.888 159.398C178.389 159.894 177.799 160.277 177.119 160.548C176.439 160.819 175.679 160.954 174.84 160.954ZM174.84 157.909C175.452 157.909 175.94 157.706 176.303 157.3C176.665 156.894 176.847 156.24 176.847 155.338V155C176.847 154.098 176.665 153.444 176.303 153.038C175.94 152.632 175.452 152.429 174.84 152.429C174.227 152.429 173.74 152.632 173.377 153.038C173.014 153.444 172.833 154.098 172.833 155V155.338C172.833 156.24 173.014 156.894 173.377 157.3C173.74 157.706 174.227 157.909 174.84 157.909ZM190.488 173.776C189.649 173.776 188.878 173.64 188.175 173.37C187.495 173.099 186.905 172.716 186.406 172.219C185.93 171.723 185.556 171.137 185.284 170.46C185.011 169.761 184.875 168.994 184.875 168.16V167.821C184.875 166.987 185.011 166.231 185.284 165.555C185.556 164.856 185.93 164.258 186.406 163.762C186.905 163.266 187.495 162.882 188.175 162.612C188.878 162.341 189.649 162.206 190.488 162.206C191.328 162.206 192.087 162.341 192.768 162.612C193.448 162.882 194.038 163.266 194.537 163.762C195.036 164.258 195.421 164.856 195.693 165.555C195.965 166.231 196.102 166.987 196.102 167.821V168.16C196.102 168.994 195.965 169.761 195.693 170.46C195.421 171.137 195.036 171.723 194.537 172.219C194.038 172.716 193.448 173.099 192.768 173.37C192.087 173.64 191.328 173.776 190.488 173.776ZM190.488 170.731C191.101 170.731 191.588 170.528 191.951 170.122C192.314 169.716 192.496 169.062 192.496 168.16V167.821C192.496 166.919 192.314 166.265 191.951 165.859C191.588 165.453 191.101 165.25 190.488 165.25C189.876 165.25 189.388 165.453 189.026 165.859C188.663 166.265 188.481 166.919 188.481 167.821V168.16C188.481 169.062 188.663 169.716 189.026 170.122C189.388 170.528 189.876 170.731 190.488 170.731Z" fill="url(#paint1_radial_4214_51214)"/>
</g>
<g filter="url(#filter3_d_4214_51214)">
<path d="M427.196 161.96C427.607 161.375 428.37 161.156 429.029 161.434C429.923 161.81 430.241 162.916 429.683 163.709L414.684 185.039C414.273 185.624 413.509 185.843 412.85 185.566C411.956 185.189 411.639 184.083 412.197 183.29L427.196 161.96ZM412.84 172.954C412.001 172.954 411.229 172.819 410.526 172.548C409.846 172.277 409.256 171.894 408.757 171.398C408.281 170.902 407.907 170.315 407.635 169.639C407.363 168.939 407.227 168.173 407.227 167.338V167C407.227 166.165 407.363 165.41 407.635 164.733C407.907 164.034 408.281 163.436 408.757 162.94C409.256 162.444 409.846 162.061 410.526 161.79C411.229 161.519 412.001 161.384 412.84 161.384C413.679 161.384 414.439 161.519 415.119 161.79C415.799 162.061 416.389 162.444 416.888 162.94C417.387 163.436 417.772 164.034 418.045 164.733C418.317 165.41 418.453 166.165 418.453 167V167.338C418.453 168.173 418.317 168.939 418.045 169.639C417.772 170.315 417.387 170.902 416.888 171.398C416.389 171.894 415.799 172.277 415.119 172.548C414.439 172.819 413.679 172.954 412.84 172.954ZM412.84 169.909C413.452 169.909 413.94 169.706 414.303 169.3C414.665 168.894 414.847 168.24 414.847 167.338V167C414.847 166.098 414.665 165.444 414.303 165.038C413.94 164.632 413.452 164.429 412.84 164.429C412.227 164.429 411.74 164.632 411.377 165.038C411.014 165.444 410.833 166.098 410.833 167V167.338C410.833 168.24 411.014 168.894 411.377 169.3C411.74 169.706 412.227 169.909 412.84 169.909ZM428.488 185.776C427.649 185.776 426.878 185.64 426.175 185.37C425.495 185.099 424.905 184.716 424.406 184.219C423.93 183.723 423.556 183.137 423.284 182.46C423.011 181.761 422.875 180.994 422.875 180.16V179.821C422.875 178.987 423.011 178.231 423.284 177.555C423.556 176.856 423.93 176.258 424.406 175.762C424.905 175.266 425.495 174.882 426.175 174.612C426.878 174.341 427.649 174.206 428.488 174.206C429.328 174.206 430.087 174.341 430.768 174.612C431.448 174.882 432.038 175.266 432.537 175.762C433.036 176.258 433.421 176.856 433.693 177.555C433.965 178.231 434.102 178.987 434.102 179.821V180.16C434.102 180.994 433.965 181.761 433.693 182.46C433.421 183.137 433.036 183.723 432.537 184.219C432.038 184.716 431.448 185.099 430.768 185.37C430.087 185.64 429.328 185.776 428.488 185.776ZM428.488 182.731C429.101 182.731 429.588 182.528 429.951 182.122C430.314 181.716 430.496 181.062 430.496 180.16V179.821C430.496 178.919 430.314 178.265 429.951 177.859C429.588 177.453 429.101 177.25 428.488 177.25C427.876 177.25 427.388 177.453 427.026 177.859C426.663 178.265 426.481 178.919 426.481 179.821V180.16C426.481 181.062 426.663 181.716 427.026 182.122C427.388 182.528 427.876 182.731 428.488 182.731Z" fill="url(#paint2_radial_4214_51214)"/>
</g>
<path fill-rule="evenodd" clip-rule="evenodd" d="M204.862 252.021C198.02 254.63 194.902 259.769 194.351 262.407L196.308 262.816C196.85 260.228 201.328 252.932 212.965 252.444L213.334 250.533L212.873 250.325L212.873 250.325C210.135 249.095 206.996 247.684 204.295 245.73C201.456 243.675 199.201 241.09 198.43 237.602L196.478 238.033C197.392 242.172 200.057 245.132 203.123 247.35C204.616 248.43 206.228 249.351 207.811 250.157C204.778 250.037 201.823 249.851 198.953 249.6C183.995 248.294 171.436 245.232 162.082 240.577C152.733 235.923 146.763 229.777 144.56 222.349C142.356 214.922 144.008 206.515 149.308 197.515C153.018 191.215 158.469 184.713 165.461 178.206C165.01 177.714 164.58 177.203 164.171 176.674C146.874 192.748 138.535 209.072 142.642 222.918C147.787 240.259 171.417 250.212 204.862 252.021ZM309.002 111.121C297.807 113.357 286.296 116.199 274.628 119.66C247.912 127.586 223.652 137.789 203.385 149.068C203.744 149.629 204.081 150.205 204.393 150.796C224.503 139.609 248.609 129.465 275.197 121.578C286.756 118.149 298.154 115.333 309.233 113.114L309.002 111.121Z" fill="url(#paint3_linear_4214_51214)"/>
<path fill-rule="evenodd" clip-rule="evenodd" d="M328.913 95.8097C329.004 98.4522 326.392 106.605 315.206 109.851L315.303 111.795L315.801 111.887C318.753 112.43 322.138 113.053 325.226 114.307C328.473 115.626 331.279 117.6 332.858 120.804L334.652 119.92C332.778 116.118 329.485 113.878 325.979 112.454C324.398 111.812 322.752 111.327 321.144 110.937C344.884 107.018 366.813 105.946 385.257 107.556C400.215 108.863 412.773 111.924 422.127 116.58C431.477 121.233 437.446 127.38 439.65 134.807C441.544 141.194 440.588 148.305 436.914 155.894C437.441 156.353 437.947 156.835 438.432 157.337C438.528 157.147 438.621 156.956 438.714 156.766C439.091 155.986 439.442 155.209 439.766 154.435C442.727 147.361 443.437 140.543 441.567 134.238C439.154 126.103 432.672 119.594 423.018 114.789C413.364 109.984 400.536 106.883 385.431 105.564C367.286 103.98 345.855 104.966 322.688 108.66C329.104 104.475 331.007 98.5062 330.912 95.7412L328.913 95.8097ZM220.275 250.287L220.047 252.291L220.309 252.287C221.225 252.271 222.147 252.25 223.074 252.224C248.803 251.496 278.644 246.674 309.581 237.496C346.989 226.399 379.58 210.837 403.139 194.107C403.875 193.585 404.602 193.061 405.32 192.536C405.425 192.459 405.531 192.382 405.636 192.305C405.118 191.865 404.619 191.403 404.14 190.922C380.657 208.08 347.424 224.184 309.013 235.579C277.095 245.048 246.402 249.841 220.275 250.287Z" fill="url(#paint4_linear_4214_51214)"/>
<defs>
<filter id="filter0_f_4214_51214" x="71.9766" y="31.5791" width="435.164" height="290.801" filterUnits="userSpaceOnUse" color-interpolation-filters="sRGB">
<feFlood flood-opacity="0" result="BackgroundImageFix"/>
<feBlend mode="normal" in="SourceGraphic" in2="BackgroundImageFix" result="shape"/>
<feGaussianBlur stdDeviation="32" result="effect1_foregroundBlur_4214_51214"/>
</filter>
<filter id="filter1_d_4214_51214" x="230.164" y="115" width="122.602" height="119" filterUnits="userSpaceOnUse" color-interpolation-filters="sRGB">
<feFlood flood-opacity="0" result="BackgroundImageFix"/>
<feColorMatrix in="SourceAlpha" type="matrix" values="0 0 0 0 0 0 0 0 0 0 0 0 0 0 0 0 0 0 127 0" result="hardAlpha"/>
<feOffset/>
<feGaussianBlur stdDeviation="13.5"/>
<feComposite in2="hardAlpha" operator="out"/>
<feColorMatrix type="matrix" values="0 0 0 0 1 0 0 0 0 0.137255 0 0 0 0 0.643137 0 0 0 0.45 0"/>
<feBlend mode="normal" in2="BackgroundImageFix" result="effect1_dropShadow_4214_51214"/>
<feBlend mode="normal" in="SourceGraphic" in2="effect1_dropShadow_4214_51214" result="shape"/>
</filter>
<filter id="filter2_d_4214_51214" x="145.164" y="124" width="75" height="75" filterUnits="userSpaceOnUse" color-interpolation-filters="sRGB">
<feFlood flood-opacity="0" result="BackgroundImageFix"/>
<feColorMatrix in="SourceAlpha" type="matrix" values="0 0 0 0 0 0 0 0 0 0 0 0 0 0 0 0 0 0 127 0" result="hardAlpha"/>
<feOffset/>
<feGaussianBlur stdDeviation="8"/>
<feComposite in2="hardAlpha" operator="out"/>
<feColorMatrix type="matrix" values="0 0 0 0 1 0 0 0 0 0.137255 0 0 0 0 0.643137 0 0 0 0.64 0"/>
<feBlend mode="normal" in2="BackgroundImageFix" result="effect1_dropShadow_4214_51214"/>
<feBlend mode="normal" in="SourceGraphic" in2="effect1_dropShadow_4214_51214" result="shape"/>
</filter>
<filter id="filter3_d_4214_51214" x="383.164" y="136" width="75" height="75" filterUnits="userSpaceOnUse" color-interpolation-filters="sRGB">
<feFlood flood-opacity="0" result="BackgroundImageFix"/>
<feColorMatrix in="SourceAlpha" type="matrix" values="0 0 0 0 0 0 0 0 0 0 0 0 0 0 0 0 0 0 127 0" result="hardAlpha"/>
<feOffset/>
<feGaussianBlur stdDeviation="8"/>
<feComposite in2="hardAlpha" operator="out"/>
<feColorMatrix type="matrix" values="0 0 0 0 1 0 0 0 0 0.137255 0 0 0 0 0.643137 0 0 0 0.64 0"/>
<feBlend mode="normal" in2="BackgroundImageFix" result="effect1_dropShadow_4214_51214"/>
<feBlend mode="normal" in="SourceGraphic" in2="effect1_dropShadow_4214_51214" result="shape"/>
</filter>
<radialGradient id="paint0_radial_4214_51214" cx="0" cy="0" r="1" gradientUnits="userSpaceOnUse" gradientTransform="translate(272.286 106.195) rotate(70.6177) scale(101.606 99.1743)">
<stop stop-color="#20FFFA"/>
<stop offset="0.716998" stop-color="#FF20FF"/>
<stop offset="1" stop-color="#FF741A"/>
</radialGradient>
<radialGradient id="paint1_radial_4214_51214" cx="0" cy="0" r="1" gradientUnits="userSpaceOnUse" gradientTransform="translate(175.151 135.141) rotate(70.3462) scale(39.2754 38.7861)">
<stop stop-color="#20FFFA"/>
<stop offset="0.716998" stop-color="#FF20FF"/>
<stop offset="1" stop-color="#FF741A"/>
</radialGradient>
<radialGradient id="paint2_radial_4214_51214" cx="0" cy="0" r="1" gradientUnits="userSpaceOnUse" gradientTransform="translate(413.151 147.141) rotate(70.3462) scale(39.2754 38.7861)">
<stop stop-color="#20FFFA"/>
<stop offset="0.716998" stop-color="#FF20FF"/>
<stop offset="1" stop-color="#FF741A"/>
</radialGradient>
<linearGradient id="paint3_linear_4214_51214" x1="225.479" y1="111.121" x2="225.479" y2="263.104" gradientUnits="userSpaceOnUse">
<stop stop-color="white" stop-opacity="0.24"/>
<stop offset="1" stop-color="white" stop-opacity="0.48"/>
</linearGradient>
<linearGradient id="paint4_linear_4214_51214" x1="331.323" y1="95.4763" x2="331.323" y2="252.291" gradientUnits="userSpaceOnUse">
<stop stop-color="white" stop-opacity="0.48"/>
<stop offset="1" stop-color="white" stop-opacity="0.24"/>
</linearGradient>
</defs>
</svg>
