<svg width="584" height="352" viewBox="0 0 584 352" fill="none" xmlns="http://www.w3.org/2000/svg">
<g filter="url(#filter0_f_4220_51140)">
<ellipse cx="288.5" cy="178" rx="74.5" ry="54" fill="#FF00FF" fill-opacity="0.16"/>
</g>
<g filter="url(#filter1_d_4220_51140)">
<path fill-rule="evenodd" clip-rule="evenodd" d="M321.62 130.484L342.662 154.84C343.16 155.417 343.102 156.286 342.527 156.791L334.966 163.453H340.194V202.485C340.194 204.024 338.939 205.272 337.389 205.272H284.659L245.912 221.774C245.556 221.925 245.182 222 244.806 222C244.264 222 243.726 221.845 243.261 221.54C242.474 221.024 242 220.149 242 219.212V177.393C242 176.278 242.669 175.269 243.7 174.831L282.977 158.104C283.325 157.954 283.703 157.878 284.082 157.878H288.563L319.621 130.353C319.903 130.104 320.273 129.985 320.649 130.002C321.023 130.027 321.375 130.199 321.62 130.484ZM284.084 199.696H334.584V163.79L327.057 170.422H328.972C329.748 170.422 330.375 171.045 330.375 171.816C330.375 172.587 329.748 173.21 328.972 173.21H284.358L253.753 185.652C253.58 185.724 253.399 185.756 253.222 185.756C252.67 185.756 252.145 185.429 251.923 184.89C251.63 184.178 251.975 183.364 252.691 183.072L267.281 177.141C267.337 176.846 267.479 176.565 267.719 176.353L280.067 165.41L247.612 179.231V214.984L282.979 199.922C283.327 199.772 283.705 199.696 284.084 199.696ZM330.823 158.97L332.562 160.665L334.674 158.529L332.936 156.835C334.556 154.219 334.215 150.739 331.918 148.497C329.625 146.255 326.12 145.985 323.517 147.641L318.24 142.491C319.588 141.956 321.188 142.221 322.29 143.295L324.402 141.157C322.101 138.912 318.591 138.632 315.987 140.291L314.251 138.595L312.138 140.731L313.876 142.425C312.255 145.043 312.596 148.523 314.893 150.766C317.192 153.01 320.702 153.29 323.306 151.632L328.571 156.771C327.224 157.306 325.627 157.044 324.528 155.973L322.415 158.11C324.714 160.349 328.222 160.63 330.823 158.97ZM289.694 177.393H328.972C329.748 177.393 330.375 178.016 330.375 178.787C330.375 179.558 329.748 180.181 328.972 180.181H289.694C288.919 180.181 288.291 179.558 288.291 178.787C288.291 178.016 288.919 177.393 289.694 177.393ZM282.681 180.18C282.681 179.409 283.308 178.786 284.084 178.786C284.859 178.786 285.487 179.409 285.487 180.18V195.514C285.487 196.285 284.859 196.908 284.084 196.908C283.308 196.908 282.681 196.285 282.681 195.514V180.18ZM276.535 180.286L252.688 190.044C251.972 190.337 251.63 191.152 251.925 191.864C252.148 192.402 252.672 192.726 253.223 192.726C253.401 192.726 253.582 192.693 253.757 192.622L277.604 182.864C278.321 182.571 278.662 181.756 278.368 181.044C278.072 180.332 277.254 179.997 276.535 180.286ZM325.768 149.839L330.681 154.636C331.196 153.288 330.906 151.706 329.807 150.633C328.711 149.562 327.114 149.303 325.768 149.839ZM321.054 149.433C319.706 149.966 318.106 149.704 317.005 148.629C315.905 147.557 315.613 145.973 316.128 144.625L321.054 149.433Z" fill="url(#paint0_radial_4220_51140)"/>
</g>
<path d="M408 129.999C408 128.124 406.48 126.604 404.605 126.604H396.394V118.395C396.394 116.52 394.875 115 392.999 115C391.124 115 389.604 116.52 389.604 118.395V126.604H381.395C379.52 126.604 378 128.124 378 129.999C378 131.875 379.52 133.394 381.395 133.394H389.604V141.605C389.604 143.48 391.124 145 392.999 145C394.875 145 396.394 143.48 396.394 141.605V133.394H404.605C406.48 133.394 408 131.875 408 129.999Z" stroke="url(#paint1_linear_4220_51140)" stroke-width="2"/>
<path d="M194 158.999C194 157.313 192.634 155.947 190.947 155.947H184.052V149.053C184.052 147.366 182.686 146 180.999 146C179.313 146 177.947 147.366 177.947 149.053V155.947H171.053C169.366 155.947 168 157.313 168 158.999C168 160.686 169.366 162.052 171.053 162.052H177.947V168.947C177.947 170.634 179.313 172 180.999 172C182.686 172 184.052 170.634 184.052 168.947V162.052H190.947C192.634 162.052 194 160.686 194 158.999Z" stroke="url(#paint2_linear_4220_51140)" stroke-width="2"/>
<path d="M374 231.999C374 230.502 372.787 229.289 371.289 229.289H365.71V223.711C365.71 222.213 364.497 221 362.999 221C361.502 221 360.289 222.213 360.289 223.711V229.289H354.711C353.213 229.289 352 230.502 352 231.999C352 233.497 353.213 234.71 354.711 234.71H360.289V240.289C360.289 241.787 361.502 243 362.999 243C364.497 243 365.71 241.787 365.71 240.289V234.71H371.289C372.787 234.71 374 233.497 374 231.999Z" stroke="url(#paint3_linear_4220_51140)" stroke-width="2"/>
<defs>
<filter id="filter0_f_4220_51140" x="150" y="60" width="277" height="236" filterUnits="userSpaceOnUse" color-interpolation-filters="sRGB">
<feFlood flood-opacity="0" result="BackgroundImageFix"/>
<feBlend mode="normal" in="SourceGraphic" in2="BackgroundImageFix" result="shape"/>
<feGaussianBlur stdDeviation="32" result="effect1_foregroundBlur_4220_51140"/>
</filter>
<filter id="filter1_d_4220_51140" x="215" y="103" width="155" height="146" filterUnits="userSpaceOnUse" color-interpolation-filters="sRGB">
<feFlood flood-opacity="0" result="BackgroundImageFix"/>
<feColorMatrix in="SourceAlpha" type="matrix" values="0 0 0 0 0 0 0 0 0 0 0 0 0 0 0 0 0 0 127 0" result="hardAlpha"/>
<feOffset/>
<feGaussianBlur stdDeviation="13.5"/>
<feComposite in2="hardAlpha" operator="out"/>
<feColorMatrix type="matrix" values="0 0 0 0 1 0 0 0 0 0.137255 0 0 0 0 0.643137 0 0 0 0.45 0"/>
<feBlend mode="normal" in2="BackgroundImageFix" result="effect1_dropShadow_4220_51140"/>
<feBlend mode="normal" in="SourceGraphic" in2="effect1_dropShadow_4220_51140" result="shape"/>
</filter>
<radialGradient id="paint0_radial_4220_51140" cx="0" cy="0" r="1" gradientUnits="userSpaceOnUse" gradientTransform="translate(264.263 79.3223) rotate(69.9002) scale(144.459 145.354)">
<stop stop-color="#20FFFA"/>
<stop offset="0.716998" stop-color="#FF20FF"/>
<stop offset="1" stop-color="#FF741A"/>
</radialGradient>
<linearGradient id="paint1_linear_4220_51140" x1="379" y1="116" x2="410.279" y2="139.636" gradientUnits="userSpaceOnUse">
<stop stop-color="white" stop-opacity="0.48"/>
<stop offset="1" stop-color="white" stop-opacity="0.24"/>
</linearGradient>
<linearGradient id="paint2_linear_4220_51140" x1="169" y1="147" x2="195.811" y2="167.259" gradientUnits="userSpaceOnUse">
<stop stop-color="white" stop-opacity="0.48"/>
<stop offset="1" stop-color="white" stop-opacity="0.24"/>
</linearGradient>
<linearGradient id="paint3_linear_4220_51140" x1="353" y1="222" x2="375.342" y2="238.883" gradientUnits="userSpaceOnUse">
<stop stop-color="white" stop-opacity="0.48"/>
<stop offset="1" stop-color="white" stop-opacity="0.24"/>
</linearGradient>
</defs>
</svg>
