<svg width="583" height="352" viewBox="0 0 583 352" fill="none" xmlns="http://www.w3.org/2000/svg">
<g filter="url(#filter0_f_4214_51183)">
<ellipse cx="277.164" cy="184" rx="81" ry="78" fill="#FF00FF" fill-opacity="0.16"/>
</g>
<g filter="url(#filter1_d_4214_51183)">
<path fill-rule="evenodd" clip-rule="evenodd" d="M247.664 106C239.656 106 233.164 112.492 233.164 120.5V230.923C233.164 238.931 239.656 245.423 247.664 245.423H305.664C313.672 245.423 320.164 238.931 320.164 230.923V120.5C320.164 112.492 313.672 106 305.664 106H247.664ZM251.011 192.5H302.319C305.25 192.5 307.626 194.876 307.626 197.808C307.626 200.739 305.25 203.115 302.319 203.115H251.011C248.079 203.115 245.703 200.739 245.703 197.808C245.703 194.876 248.079 192.5 251.011 192.5ZM243.203 197.808C243.203 193.496 246.699 190 251.011 190H302.319C306.631 190 310.126 193.496 310.126 197.808C310.126 202.12 306.631 205.615 302.319 205.615H251.011C246.699 205.615 243.203 202.12 243.203 197.808ZM258.817 197.808C258.817 199.04 257.818 200.039 256.586 200.039C255.354 200.039 254.356 199.04 254.356 197.808C254.356 196.576 255.354 195.578 256.586 195.578C257.818 195.578 258.817 196.576 258.817 197.808ZM266.625 200.039C267.857 200.039 268.856 199.04 268.856 197.808C268.856 196.576 267.857 195.578 266.625 195.578C265.393 195.578 264.394 196.576 264.394 197.808C264.394 199.04 265.393 200.039 266.625 200.039ZM278.894 197.808C278.894 199.04 277.895 200.039 276.663 200.039C275.431 200.039 274.432 199.04 274.432 197.808C274.432 196.576 275.431 195.578 276.663 195.578C277.895 195.578 278.894 196.576 278.894 197.808ZM286.702 200.039C287.934 200.039 288.932 199.04 288.932 197.808C288.932 196.576 287.934 195.578 286.702 195.578C285.47 195.578 284.471 196.576 284.471 197.808C284.471 199.04 285.47 200.039 286.702 200.039ZM298.971 197.808C298.971 199.04 297.972 200.039 296.74 200.039C295.508 200.039 294.509 199.04 294.509 197.808C294.509 196.576 295.508 195.578 296.74 195.578C297.972 195.578 298.971 196.576 298.971 197.808ZM251.011 213.692H302.319C305.25 213.692 307.626 216.069 307.626 219C307.626 221.931 305.25 224.308 302.319 224.308H251.011C248.079 224.308 245.703 221.931 245.703 219C245.703 216.069 248.079 213.692 251.011 213.692ZM243.203 219C243.203 214.688 246.699 211.192 251.011 211.192H302.319C306.631 211.192 310.126 214.688 310.126 219C310.126 223.312 306.631 226.808 302.319 226.808H251.011C246.699 226.808 243.203 223.312 243.203 219ZM258.817 219C258.817 220.232 257.818 221.231 256.586 221.231C255.354 221.231 254.356 220.232 254.356 219C254.356 217.768 255.354 216.77 256.586 216.77C257.818 216.77 258.817 217.768 258.817 219ZM266.625 221.231C267.857 221.231 268.856 220.232 268.856 219C268.856 217.768 267.857 216.77 266.625 216.77C265.393 216.77 264.394 217.768 264.394 219C264.394 220.232 265.393 221.231 266.625 221.231ZM278.894 219C278.894 220.232 277.895 221.231 276.663 221.231C275.431 221.231 274.433 220.232 274.433 219C274.433 217.768 275.431 216.77 276.663 216.77C277.895 216.77 278.894 217.768 278.894 219ZM286.702 221.231C287.934 221.231 288.933 220.232 288.933 219C288.933 217.768 287.934 216.77 286.702 216.77C285.47 216.77 284.471 217.768 284.471 219C284.471 220.232 285.47 221.231 286.702 221.231ZM298.971 219C298.971 220.232 297.972 221.231 296.74 221.231C295.508 221.231 294.51 220.232 294.51 219C294.51 217.768 295.508 216.77 296.74 216.77C297.972 216.77 298.971 217.768 298.971 219ZM256.164 148.719C256.164 137.295 265.459 128 276.883 128C288.307 128 297.602 137.295 297.602 148.719C297.602 160.143 288.307 169.438 276.883 169.438C265.459 169.438 256.164 160.143 256.164 148.719ZM281.067 138.771C279.887 137.983 278.5 137.562 277.082 137.562C275.18 137.562 273.356 138.318 272.011 139.663C270.666 141.008 269.91 142.832 269.91 144.734C269.91 146.153 270.331 147.539 271.119 148.719C271.907 149.898 273.027 150.818 274.337 151.36C275.648 151.903 277.09 152.045 278.481 151.768C279.872 151.492 281.15 150.809 282.153 149.806C283.156 148.803 283.839 147.525 284.116 146.134C284.393 144.742 284.251 143.3 283.708 141.99C283.165 140.679 282.246 139.559 281.067 138.771ZM269.858 164.78C272.073 165.75 274.465 166.251 276.883 166.25C279.301 166.251 281.693 165.75 283.908 164.78C286.123 163.809 288.112 162.39 289.75 160.611C288.87 156.052 280.961 155.094 276.883 155.094C272.805 155.094 264.896 156.052 264.015 160.612C265.654 162.39 267.643 163.81 269.858 164.78Z" fill="url(#paint0_radial_4214_51183)"/>
</g>
<path d="M366.591 191.609L367.278 190.883L386.381 160.921C385.341 161.838 381.575 165.699 377.771 169.669C374.44 173.145 371.024 176.764 369.277 178.682C368.513 178.062 367.435 177.241 366.384 176.461C364.88 175.345 363.338 174.242 362.703 173.838L362.703 173.838C361.646 173.167 360.436 173.042 359.387 173.461C358.337 173.879 357.547 174.803 357.255 176.024L357.255 176.024C356.925 177.403 357.549 178.496 358.106 179.266L358.106 179.266C359.276 180.884 360.39 182.645 361.524 184.439L361.594 184.551C362.746 186.373 363.921 188.226 365.171 189.933C365.573 190.482 366.036 191.085 366.591 191.609Z" stroke="url(#paint1_linear_4214_51183)" stroke-width="2"/>
<defs>
<filter id="filter0_f_4214_51183" x="132.164" y="42" width="290" height="284" filterUnits="userSpaceOnUse" color-interpolation-filters="sRGB">
<feFlood flood-opacity="0" result="BackgroundImageFix"/>
<feBlend mode="normal" in="SourceGraphic" in2="BackgroundImageFix" result="shape"/>
<feGaussianBlur stdDeviation="32" result="effect1_foregroundBlur_4214_51183"/>
</filter>
<filter id="filter1_d_4214_51183" x="206.164" y="79" width="141" height="193.423" filterUnits="userSpaceOnUse" color-interpolation-filters="sRGB">
<feFlood flood-opacity="0" result="BackgroundImageFix"/>
<feColorMatrix in="SourceAlpha" type="matrix" values="0 0 0 0 0 0 0 0 0 0 0 0 0 0 0 0 0 0 127 0" result="hardAlpha"/>
<feOffset/>
<feGaussianBlur stdDeviation="13.5"/>
<feComposite in2="hardAlpha" operator="out"/>
<feColorMatrix type="matrix" values="0 0 0 0 1 0 0 0 0 0.137255 0 0 0 0 0.643137 0 0 0 0.45 0"/>
<feBlend mode="normal" in2="BackgroundImageFix" result="effect1_dropShadow_4214_51183"/>
<feBlend mode="normal" in="SourceGraphic" in2="effect1_dropShadow_4214_51183" result="shape"/>
</filter>
<radialGradient id="paint0_radial_4214_51183" cx="0" cy="0" r="1" gradientUnits="userSpaceOnUse" gradientTransform="translate(252.341 29.1991) rotate(78.25) scale(209.99 130.532)">
<stop stop-color="#20FFFA"/>
<stop offset="0.716998" stop-color="#FF20FF"/>
<stop offset="1" stop-color="#FF741A"/>
</radialGradient>
<linearGradient id="paint1_linear_4214_51183" x1="358.164" y1="161" x2="393.326" y2="189.284" gradientUnits="userSpaceOnUse">
<stop stop-color="white" stop-opacity="0.48"/>
<stop offset="1" stop-color="white" stop-opacity="0.24"/>
</linearGradient>
</defs>
</svg>
