<svg width="583" height="352" viewBox="0 0 583 352" fill="none" xmlns="http://www.w3.org/2000/svg">
<g filter="url(#filter0_f_4214_51233)">
<ellipse cx="379.5" cy="185" rx="61" ry="64" fill="#FF00FF" fill-opacity="0.16"/>
</g>
<g filter="url(#filter1_d_4214_51233)">
<path d="M367.064 176.319C351.865 176.319 339.5 188.53 339.5 203.538C339.5 218.546 351.867 230.756 367.064 230.756C382.261 230.756 394.626 218.546 394.626 203.538C394.626 188.53 382.263 176.319 367.064 176.319ZM368.364 217.149V221.767H365.542V217.283C362.945 217.24 360.257 216.439 358.69 215.331L359.767 212.357C361.375 213.421 363.703 214.266 366.211 214.266C369.39 214.266 371.54 212.445 371.54 209.912C371.54 207.469 369.795 205.962 366.479 204.627C361.912 202.851 359.09 200.809 359.09 196.946C359.09 193.26 361.734 190.463 365.852 189.797V185.311H368.629V189.619C371.315 189.709 373.149 190.417 374.448 191.174L373.328 194.105C372.388 193.571 370.552 192.595 367.686 192.595C364.239 192.595 362.941 194.639 362.941 196.414C362.941 198.725 364.6 199.878 368.492 201.477C373.104 203.343 375.432 205.65 375.432 209.602C375.437 213.107 372.975 216.395 368.364 217.148V217.149Z" fill="url(#paint0_radial_4214_51233)"/>
<path d="M391.873 164.605C408.488 164.605 421.503 160.518 421.503 155.303C421.503 150.087 408.488 146 391.873 146C375.257 146 362.242 150.087 362.242 155.302C362.242 160.518 375.257 164.605 391.873 164.605Z" fill="url(#paint1_radial_4214_51233)"/>
<path d="M419.882 161.849L419.59 162.028C413.111 166.009 401.023 167.43 391.874 167.43C382.721 167.43 370.635 166.011 364.156 162.028L363.864 161.849L363.623 162.09C362.707 163.008 362.242 163.976 362.242 164.96C362.242 170.169 375.257 174.252 391.873 174.252C408.488 174.252 421.503 170.169 421.503 164.96C421.503 163.974 421.039 163.008 420.122 162.09L419.882 161.849Z" fill="url(#paint2_radial_4214_51233)"/>
<path d="M368.444 172.613C366.876 172.129 365.442 171.584 364.205 170.965L363.889 170.808L363.629 171.02C362.896 171.619 362.432 172.24 362.242 172.875C363.825 172.687 365.433 172.558 367.08 172.558C367.538 172.556 367.986 172.598 368.444 172.613Z" fill="url(#paint3_radial_4214_51233)"/>
<path d="M419.87 170.808L419.578 170.987C413.089 174.968 400.983 176.387 391.819 176.387C388.003 176.387 383.679 176.137 379.461 175.562C383.437 177.36 386.954 179.969 389.811 183.179C390.477 183.193 391.14 183.211 391.82 183.211C408.46 183.211 421.495 179.128 421.495 173.918C421.495 172.933 421.03 171.968 420.111 171.048L419.87 170.808Z" fill="url(#paint4_radial_4214_51233)"/>
<path d="M419.896 179.765L419.608 179.945C413.211 183.946 401.275 185.375 392.241 185.375C392.119 185.375 391.989 185.371 391.867 185.371C393.399 187.455 394.683 189.728 395.659 192.168C410.394 191.641 421.497 187.759 421.497 182.893C421.497 181.903 421.039 180.933 420.134 180.008L419.896 179.765Z" fill="url(#paint5_radial_4214_51233)"/>
<path d="M419.879 188.723L419.586 188.894C414.045 192.149 404.413 193.61 396.008 193.967C396.72 196.033 397.19 198.198 397.395 200.437C411.284 199.676 421.504 196.114 421.504 191.7C421.504 190.756 421.039 189.833 420.12 188.953L419.879 188.723Z" fill="url(#paint6_radial_4214_51233)"/>
<path d="M419.904 196.992L419.617 197.175C414.503 200.413 405.832 201.97 397.96 202.459C397.965 202.702 397.996 202.938 397.996 203.181C397.996 205.309 397.784 207.388 397.383 209.396C411.241 208.652 421.501 204.857 421.501 200.14C421.501 199.144 421.045 198.168 420.144 197.237L419.904 196.992Z" fill="url(#paint7_radial_4214_51233)"/>
</g>
<g filter="url(#filter2_d_4214_51233)">
<path fill-rule="evenodd" clip-rule="evenodd" d="M233.629 152.987C243.398 141.816 260.454 128.481 279.834 124.606C289.493 122.675 299.717 123.094 309.94 127.283C319.314 131.124 328.773 138.169 337.826 149.64C331.517 147.16 326.03 148.456 323.749 149.909L325.361 152.44C327.393 151.145 335.49 149.221 343.808 157.053L346.245 155.446L346.075 154.983C345.04 152.155 343.873 148.967 343.392 145.722C342.888 142.325 343.168 139.044 345.034 136.195L342.524 134.551C340.111 138.236 339.859 142.349 340.424 146.162C340.553 147.03 340.726 147.892 340.928 148.739C331.393 136.377 321.276 128.685 311.077 124.507C300.236 120.065 289.402 119.634 279.246 121.665C258.998 125.713 241.399 139.545 231.371 151.013C230.826 151.636 230.889 152.584 231.513 153.129C232.136 153.674 233.084 153.611 233.629 152.987Z" fill="url(#paint8_radial_4214_51233)"/>
</g>
<path d="M158.5 172.716C167.405 165.283 180.167 164.909 195.224 172.715C210.281 180.522 222.101 181.649 229.5 172.716" stroke="url(#paint9_linear_4214_51233)" stroke-width="2" stroke-linecap="round"/>
<path d="M158.5 188.192C167.405 180.14 180.167 179.735 195.224 188.192C210.281 196.649 222.101 197.87 229.5 188.192" stroke="url(#paint10_linear_4214_51233)" stroke-width="2" stroke-linecap="round"/>
<path d="M158.5 203.716C167.405 196.283 180.167 195.909 195.224 203.715C210.281 211.522 222.101 212.649 229.5 203.716" stroke="url(#paint11_linear_4214_51233)" stroke-width="2" stroke-linecap="round"/>
<defs>
<filter id="filter0_f_4214_51233" x="254.5" y="57" width="250" height="256" filterUnits="userSpaceOnUse" color-interpolation-filters="sRGB">
<feFlood flood-opacity="0" result="BackgroundImageFix"/>
<feBlend mode="normal" in="SourceGraphic" in2="BackgroundImageFix" result="shape"/>
<feGaussianBlur stdDeviation="32" result="effect1_foregroundBlur_4214_51233"/>
</filter>
<filter id="filter1_d_4214_51233" x="312.5" y="119" width="136" height="138.757" filterUnits="userSpaceOnUse" color-interpolation-filters="sRGB">
<feFlood flood-opacity="0" result="BackgroundImageFix"/>
<feColorMatrix in="SourceAlpha" type="matrix" values="0 0 0 0 0 0 0 0 0 0 0 0 0 0 0 0 0 0 127 0" result="hardAlpha"/>
<feOffset/>
<feGaussianBlur stdDeviation="13.5"/>
<feComposite in2="hardAlpha" operator="out"/>
<feColorMatrix type="matrix" values="0 0 0 0 1 0 0 0 0 0.137255 0 0 0 0 0.643137 0 0 0 0.45 0"/>
<feBlend mode="normal" in2="BackgroundImageFix" result="effect1_dropShadow_4214_51233"/>
<feBlend mode="normal" in="SourceGraphic" in2="effect1_dropShadow_4214_51233" result="shape"/>
</filter>
<filter id="filter2_d_4214_51233" x="204" y="93.5" width="169.242" height="90.5537" filterUnits="userSpaceOnUse" color-interpolation-filters="sRGB">
<feFlood flood-opacity="0" result="BackgroundImageFix"/>
<feColorMatrix in="SourceAlpha" type="matrix" values="0 0 0 0 0 0 0 0 0 0 0 0 0 0 0 0 0 0 127 0" result="hardAlpha"/>
<feOffset/>
<feGaussianBlur stdDeviation="13.5"/>
<feComposite in2="hardAlpha" operator="out"/>
<feColorMatrix type="matrix" values="0 0 0 0 1 0 0 0 0 0.137255 0 0 0 0 0.643137 0 0 0 0.45 0"/>
<feBlend mode="normal" in2="BackgroundImageFix" result="effect1_dropShadow_4214_51233"/>
<feBlend mode="normal" in="SourceGraphic" in2="effect1_dropShadow_4214_51233" result="shape"/>
</filter>
<radialGradient id="paint0_radial_4214_51233" cx="0" cy="0" r="1" gradientUnits="userSpaceOnUse" gradientTransform="translate(351.651 146.333) rotate(71.3477) scale(84.7214 80.0429)">
<stop stop-color="#20FFFA"/>
<stop offset="0.716998" stop-color="#FF20FF"/>
<stop offset="1" stop-color="#FF741A"/>
</radialGradient>
<radialGradient id="paint1_radial_4214_51233" cx="0" cy="0" r="1" gradientUnits="userSpaceOnUse" gradientTransform="translate(375.305 135.751) rotate(43.2851) scale(40.0138 62.266)">
<stop stop-color="#20FFFA"/>
<stop offset="0.716998" stop-color="#FF20FF"/>
<stop offset="1" stop-color="#FF741A"/>
</radialGradient>
<radialGradient id="paint2_radial_4214_51233" cx="0" cy="0" r="1" gradientUnits="userSpaceOnUse" gradientTransform="translate(375.305 155.016) rotate(32.125) scale(34.3942 48.293)">
<stop stop-color="#20FFFA"/>
<stop offset="0.716998" stop-color="#FF20FF"/>
<stop offset="1" stop-color="#FF741A"/>
</radialGradient>
<radialGradient id="paint3_radial_4214_51233" cx="0" cy="0" r="1" gradientUnits="userSpaceOnUse" gradientTransform="translate(363.609 169.669) rotate(45) scale(4.31093 6.72034)">
<stop stop-color="#20FFFA"/>
<stop offset="0.716998" stop-color="#FF20FF"/>
<stop offset="1" stop-color="#FF741A"/>
</radialGradient>
<radialGradient id="paint4_radial_4214_51233" cx="0" cy="0" r="1" gradientUnits="userSpaceOnUse" gradientTransform="translate(388.726 163.975) rotate(41.5167) scale(27.593 42.6974)">
<stop stop-color="#20FFFA"/>
<stop offset="0.716998" stop-color="#FF20FF"/>
<stop offset="1" stop-color="#FF741A"/>
</radialGradient>
<radialGradient id="paint5_radial_4214_51233" cx="0" cy="0" r="1" gradientUnits="userSpaceOnUse" gradientTransform="translate(398.399 172.932) rotate(51.4698) scale(23.38 35.5218)">
<stop stop-color="#20FFFA"/>
<stop offset="0.716998" stop-color="#FF20FF"/>
<stop offset="1" stop-color="#FF741A"/>
</radialGradient>
<radialGradient id="paint6_radial_4214_51233" cx="0" cy="0" r="1" gradientUnits="userSpaceOnUse" gradientTransform="translate(401.628 182.27) rotate(54.0395) scale(21.3407 31.6257)">
<stop stop-color="#20FFFA"/>
<stop offset="0.716998" stop-color="#FF20FF"/>
<stop offset="1" stop-color="#FF741A"/>
</radialGradient>
<radialGradient id="paint7_radial_4214_51233" cx="0" cy="0" r="1" gradientUnits="userSpaceOnUse" gradientTransform="translate(402.699 190.16) rotate(57.0508) scale(21.7955 31.0151)">
<stop stop-color="#20FFFA"/>
<stop offset="0.716998" stop-color="#FF20FF"/>
<stop offset="1" stop-color="#FF741A"/>
</radialGradient>
<radialGradient id="paint8_radial_4214_51233" cx="0" cy="0" r="1" gradientUnits="userSpaceOnUse" gradientTransform="translate(189 121) rotate(2.44821) scale(210.692 328.045)">
<stop stop-color="#20FFFA"/>
<stop offset="0.491072" stop-color="#FF20FF"/>
<stop offset="1" stop-color="#FF741A"/>
</radialGradient>
<linearGradient id="paint9_linear_4214_51233" x1="229.5" y1="167" x2="223.563" y2="193.542" gradientUnits="userSpaceOnUse">
<stop stop-color="white" stop-opacity="0.48"/>
<stop offset="1" stop-color="white" stop-opacity="0.24"/>
</linearGradient>
<linearGradient id="paint10_linear_4214_51233" x1="229.5" y1="182" x2="222.59" y2="210.518" gradientUnits="userSpaceOnUse">
<stop stop-color="white" stop-opacity="0.48"/>
<stop offset="1" stop-color="white" stop-opacity="0.24"/>
</linearGradient>
<linearGradient id="paint11_linear_4214_51233" x1="229.5" y1="198" x2="223.563" y2="224.542" gradientUnits="userSpaceOnUse">
<stop stop-color="white" stop-opacity="0.48"/>
<stop offset="1" stop-color="white" stop-opacity="0.24"/>
</linearGradient>
</defs>
</svg>
