<svg width="48" height="48" viewBox="0 0 48 48" fill="none" xmlns="http://www.w3.org/2000/svg">
<g clip-path="url(#clip0_4169_3281)">
<path d="M11.425 25.9237L12.695 16.2923L1.67969 8.57347L11.7442 12.0147L14.1211 8.33354L22.8002 2.89746L41.931 13.5365L42.9225 29.7694L34.3996 41.7246L27.6627 42.7666L31.1466 36.3297V30.1327L28.6135 25.293L26.0396 23.5724L22.0804 27.6923V32.0521L18.9904 34.9724L15.0651 35.4522L13.3265 36.4462L10.4743 35.5276L9.2858 31.2089L11.425 28.1721V25.9237Z" fill="white"/>
<path d="M29.0153 8.49149C26.9169 8.05276 24.6215 8.1693 24.6215 8.1693C24.6215 8.1693 23.8676 11.686 19.1953 12.6114C19.2293 12.6114 25.3685 14.7296 29.0153 8.49149Z" fill="#94A6C3"/>
<path d="M30.9165 40.4016C33.4496 38.3999 35.3511 35.6442 36.2272 32.5251C36.2679 32.4086 36.6211 32.2029 36.8588 32.0453C37.2526 31.8053 37.6533 31.6065 37.728 31.2844C37.8842 30.3658 37.9657 29.4061 37.9657 28.4464C37.9657 28.0899 37.6058 27.7266 37.2526 27.3701C36.9742 27.1302 36.6958 26.8491 36.6958 26.6503C36.3019 23.0103 34.638 19.6102 31.9827 17.1355L31.7043 17.4165C34.2781 19.8569 35.9419 23.1748 36.3019 26.6915C36.3426 27.0136 36.655 27.329 36.9742 27.6512C37.2526 27.8911 37.5718 28.2544 37.5718 28.4121C37.5718 29.3307 37.4903 30.2492 37.3341 31.1678C37.2934 31.3255 36.9402 31.49 36.6618 31.6477C36.2679 31.8465 35.908 32.0453 35.8333 32.3675C34.8825 35.7676 32.7026 38.729 29.8095 40.6484C30.3256 39.531 31.9487 35.891 32.818 34.047L32.6618 28.131L27.6295 23.2159L24.7773 23.6135L21.6465 28.7343C21.6465 28.7343 23.1134 30.6126 21.0489 32.813C19.0319 34.9724 17.4428 35.4522 17.4428 35.4522L15.9759 34.6502C16.4105 34.0881 17.2866 33.2518 17.9589 32.6897C19.1066 31.7299 20.2543 31.6477 20.2543 30.6126C20.3019 28.4464 17.9997 29.0427 17.9997 29.0427L17.1644 29.8448L16.8112 32.8062L15.0727 35.0067L14.8757 34.9655L12.0234 34.328C12.0234 34.328 13.7688 33.4094 14.0472 32.3675C14.3256 31.3666 13.4903 28.0488 13.4496 27.85C13.4903 27.8911 14.2849 28.5697 14.638 29.6871C15.2696 27.9254 16.1049 26.2459 16.3426 26.0882C16.5803 25.9305 19.7857 24.2099 19.7857 24.2099L18.7195 27.0479L19.5141 26.6092L21.4156 21.8929C21.4156 21.8929 23.2764 20.9743 24.6618 20.9743C27.1542 20.9332 30.8418 17.8553 29.1779 12.3369C29.6533 12.5357 37.891 16.6967 39.3172 24.8543C40.3834 31.1267 36.8588 37.0015 30.9165 40.4016Z" fill="#94A6C3"/>
<path d="M21.4903 9.36881C22.4003 8.28571 22.0472 6.68848 22.0472 6.68848L19.3918 10.6507C19.3511 10.6507 20.3358 10.6918 21.4903 9.36881Z" fill="#1B314F"/>
<path d="M12.5712 31.0035L12.8903 29.4062C12.8903 29.4062 11.5797 31.7233 11.4642 32.0455C11.342 32.4088 11.5457 33.0463 12.055 33.0052C12.5712 32.964 13.2027 32.2031 13.2027 31.6479C13.2027 30.9281 12.5712 31.0035 12.5712 31.0035Z" fill="#1B314F"/>
<path d="M36.1007 5.57066C36.1007 5.57066 38.0838 5.65292 40.1415 5.89285C35.5031 2.21167 31.1092 1.13542 27.5439 1.13542C22.6339 1.13542 19.3062 3.17823 19.1024 3.29477L20.6508 0.813232C20.6508 0.813232 14.4709 0.209984 12.2909 6.81143C11.734 5.41299 11.2247 3.37018 11.2247 3.37018C11.2247 3.37018 8.01246 6.21504 9.5201 10.9313C5.8325 9.57403 0.569339 7.68888 0.365604 7.6546C0.0871664 7.61347 0.00567229 7.73686 0.00567229 7.73686C0.00567229 7.73686 -0.0758217 7.8534 0.161869 8.05905C0.603295 8.40866 8.92248 14.6125 10.7493 15.8121C10.3554 17.2517 10.3554 17.9304 10.7493 18.609C11.3062 19.5276 11.3401 20.0075 11.2654 20.6861C11.1839 21.3648 10.4709 27.2464 10.3147 27.9662C10.1585 28.686 8.49464 31.2429 8.56934 32.0039C8.65083 32.7648 9.6763 36.0004 10.5931 36.3637C11.2654 36.6036 12.9293 37.1246 14.0362 37.1246C14.4301 37.1246 14.7901 37.0423 14.9462 36.8847C15.6186 36.2883 15.8155 36.1649 16.2909 36.1649C16.3316 36.1649 16.3724 36.1649 16.4063 36.1649C16.6033 36.1649 16.841 36.206 17.1194 36.206C17.751 36.206 18.5863 36.0826 19.1771 35.5274C20.0464 34.6499 21.5541 33.4503 22.0294 32.8882C22.6271 32.1272 22.9395 31.0921 22.7833 30.0502C22.661 29.0904 23.1771 28.2473 23.7748 27.4109C24.5286 26.4101 25.914 24.6141 25.914 24.6141C28.6508 26.6843 30.3554 29.8445 30.3554 33.3612C30.3554 39.5993 24.97 44.6378 18.3147 44.6378C17.2824 44.6378 16.2977 44.5212 15.3062 44.2813C18.3554 45.3575 20.9293 45.7209 23.0345 45.7209C27.5099 45.7209 29.8868 44.0825 29.8868 44.0825C29.8868 44.0825 29.0583 45.1656 27.7069 46.3995C27.7476 46.3995 27.7476 46.3995 27.7476 46.3995C35.1568 45.3576 38.7629 39.2017 38.7629 39.2017C38.7629 39.2017 38.4844 41.2034 38.1313 42.5607C47.9853 35.0818 46.3215 25.7246 46.2807 25.4093C46.3622 25.5258 47.3537 26.7254 47.8631 27.3698C49.4522 10.8902 36.1007 5.57066 36.1007 5.57066ZM20.9293 31.8873C20.7731 32.0861 20.1007 32.6894 19.6254 33.1281C19.15 33.5668 18.6339 34.0055 18.24 34.41C18.0838 34.5676 17.7646 34.6499 17.2892 34.6499C17.133 34.6499 16.97 34.6499 16.8546 34.6499C16.7731 34.6499 16.6984 34.6499 16.6169 34.6499C16.5354 34.6499 16.4946 34.6499 16.4607 34.6499C16.3384 34.6499 16.223 34.6499 16.1007 34.6499C16.6984 33.8479 18.4369 32.0107 19.0345 31.6131C19.7476 31.1333 20.1075 30.6534 19.6661 29.8171C19.2315 28.9739 18.0838 29.1796 18.0838 29.1796C18.0838 29.1796 18.7561 28.8985 19.3537 28.8985C18.5999 28.6997 17.6491 28.8985 17.2145 29.3372C16.7391 29.7759 16.8206 31.3389 16.6237 32.3329C16.4267 33.3749 15.7544 33.8959 14.7221 34.8556C14.1653 35.3765 13.7714 35.5342 13.4522 35.5342C12.7799 35.4177 11.9853 35.212 11.4284 35.0132C11.0345 34.4922 10.4369 32.7716 10.2807 32.0518C10.3962 31.6542 10.8715 30.8111 11.1092 30.3312C11.5846 29.4126 11.8631 28.8916 11.9445 28.4118C12.1007 27.7331 12.6169 23.531 12.8138 21.7761C13.3299 22.4547 14.043 23.579 13.88 24.2987C15.0277 22.6604 14.1992 21.0563 13.7985 20.4188C13.4454 19.7812 12.97 18.4993 13.3639 17.142C13.7578 15.7847 15.1839 12.0213 15.1839 12.0213C15.1839 12.0213 15.6593 12.8645 16.3316 12.6999C17.004 12.5423 22.4301 4.30247 22.4301 4.30247C22.4301 4.30247 23.897 7.53807 22.3486 9.90307C20.7663 12.2612 19.2179 12.6999 19.2179 12.6999C19.2179 12.6999 21.3979 13.0975 23.4148 11.6168C24.2434 13.5774 25.0379 15.6134 25.0787 15.8944C24.9564 16.1755 23.3741 20.0143 23.2179 20.2542C23.1364 20.3365 22.5863 20.4942 22.1856 20.5764C21.5133 20.7752 21.1194 20.8986 20.9564 21.0152C20.678 21.2551 19.408 24.7717 18.8172 26.4924C18.1041 26.6912 17.3911 27.0956 16.8749 27.8908C17.1534 27.692 18.0226 27.5686 18.661 27.4932C19.2179 27.4521 20.9157 28.3707 21.3571 30.0913C21.3571 30.1324 21.3571 30.1324 21.3571 30.1735C21.4454 30.8042 21.2485 31.4075 20.9293 31.8873ZM17.2077 32.3672C17.5676 31.8462 17.5269 30.9687 17.5676 30.6877C17.6084 30.4066 17.6831 29.8856 18.0023 29.8102C18.3215 29.728 19.0753 29.8514 19.0753 30.4066C19.0753 30.9276 18.5184 31.0441 18.1245 31.4075C17.8393 31.6817 17.2824 32.2849 17.2077 32.3672ZM33.0108 24.7238C33.4047 22.6878 33.4454 20.926 33.3299 19.4865C34.8715 21.5636 35.8223 24.0862 36.1007 26.6843C36.1415 27.0065 36.4539 27.3218 36.7731 27.644C37.0515 27.8839 37.3707 28.2061 37.3707 28.4049C37.3707 29.3235 37.2892 30.2421 37.133 31.1675C37.0923 31.2841 36.7391 31.4897 36.4607 31.6474C36.0668 31.8462 35.7069 32.045 35.6322 32.3672C34.7629 35.4451 32.8953 38.1666 30.403 40.086C34.0838 36.206 35.8631 29.8034 33.0108 24.7238ZM30.5184 40.4425C33.0923 38.4408 35.0753 35.6439 35.9445 32.4837C35.9853 32.3672 36.3384 32.1615 36.5761 32.0039C36.97 31.8051 37.3707 31.5651 37.4454 31.2429C37.6016 30.3244 37.6831 29.3646 37.6831 28.4049C37.6831 28.0485 37.3232 27.6852 36.97 27.3287C36.7731 27.0888 36.4539 26.8077 36.4539 26.6089C36.1347 23.6886 34.987 20.9329 33.2077 18.6502C32.4131 13.8516 29.2485 12.3709 29.167 12.3298C29.2485 12.4532 31.3062 15.4488 29.88 18.9655C28.4131 22.5233 24.6508 21.968 24.3316 22.0023C24.0125 22.0023 22.7901 23.5995 21.2417 26.5609C21.0447 26.4787 20.2094 26.2799 19.2586 26.4444C19.9717 24.4427 21.0447 21.6047 21.2417 21.3648C21.3232 21.2825 21.914 21.1248 22.3147 21.0083C23.0685 20.8095 23.4216 20.6861 23.5439 20.5284C23.6254 20.4051 24.0193 19.4865 24.4131 18.5268C24.7731 18.5268 25.6831 18.4445 25.7578 18.4034C25.8393 18.3211 26.5931 16.3674 26.5931 16.1275C26.5931 15.9287 25.0447 12.0487 24.4539 10.568C24.7323 10.2458 25.0108 9.84823 25.2824 9.4095C33.4046 10.2938 39.7476 17.2517 39.7476 25.6835C39.7476 32.1615 35.9853 37.8032 30.5184 40.4425Z" fill="#1B314F"/>
<path d="M19.9763 18.8488C20.7302 17.9714 20.3363 16.333 18.9441 16.0519C19.304 15.2156 19.8134 13.5361 19.8134 13.5361C19.8134 13.5361 15.7726 19.9319 15.4195 20.0553C15.0595 20.1787 14.7064 18.7734 14.7064 18.7734C13.9526 21.6937 15.9763 22.0913 16.214 21.1727C17.321 20.8848 19.2225 19.6851 19.9763 18.8488Z" fill="#1B314F"/>
<path d="M16.5312 20.4054L18.589 16.8477C18.589 16.8477 19.7774 17.4509 19.1798 18.4106C18.4328 19.528 16.5312 20.4054 16.5312 20.4054Z" fill="#FFD923"/>
<path d="M42.003 36.8851C41.4054 37.6872 40.7331 38.5235 39.9453 39.3255C45.0523 29.4062 40.183 20.3301 39.9861 19.9736C40.346 20.337 40.6991 20.7345 41.0183 21.091C44.9368 25.4851 45.4122 32.0866 42.003 36.8851Z" fill="#D82122"/>
<path d="M46.7549 24.1275C44.9689 19.2878 42.4358 15.1679 36.8534 11.4525C31.468 7.85354 25.6819 8.1346 25.3627 8.17573C25.322 8.17573 25.2812 8.17573 25.2812 8.17573C25.4782 8.09347 25.6751 8.05234 25.8721 8.01806C27.1013 7.62047 28.6836 7.29828 30.2728 7.09948C34.4765 6.48938 38.7142 7.92894 41.6072 11.0137C41.648 11.0549 41.648 11.0549 41.6887 11.096C44.9756 14.6126 46.6802 19.0068 46.7549 24.1275Z" fill="#D82122"/>
<path d="M35.5824 4.3299C29.6809 3.21253 25.8778 3.76779 23.141 4.80976C23.0595 4.48757 22.781 3.85005 22.5433 3.32906C21.7216 4.3299 20.8456 5.52954 20.2955 6.29046C18.7878 7.33243 18.1562 8.33327 18.1562 8.33327C19.0255 5.33075 21.5654 3.09599 24.6554 2.53387C25.5247 2.37621 26.4754 2.29395 27.5077 2.29395C30.2377 2.33508 32.9678 3.01373 35.5824 4.3299Z" fill="#D82122"/>
<path d="M13.7565 12.0077C9.12489 11.8501 10.6665 6.40713 10.748 6.0918C10.748 6.13293 11.0604 10.3694 13.7565 12.0077Z" fill="#D82122"/>
<path d="M18.3134 2.21191C14.7481 4.37126 15.4611 9.52629 15.4611 9.52629C12.052 4.29586 18.035 2.33531 18.3134 2.21191Z" fill="#D82122"/>
<path d="M12.4584 13.4473C12.6961 13.6461 12.9338 14.0095 12.6553 14.5304C12.4992 14.8115 12.2615 14.7704 11.9015 14.6127C11.4261 14.3728 8.57385 12.6933 6 10.9727C8.93379 12.0146 11.9015 13.132 12.3769 13.3719C12.3769 13.3719 12.4177 13.4131 12.4584 13.4473Z" fill="white"/>
</g>
<defs>
<clipPath id="clip0_4169_3281">
<rect width="48" height="45.6" fill="white" transform="translate(0 0.799805)"/>
</clipPath>
</defs>
</svg>
