<svg width="49" height="48" viewBox="0 0 49 48" fill="none" xmlns="http://www.w3.org/2000/svg">
<g clip-path="url(#clip0_4009_52055)">
<g clip-path="url(#clip1_4009_52055)">
<path d="M14.8862 20.5274L24.2088 11.2087L33.5352 20.535L38.9567 15.1098L24.2088 0.358398L9.46094 15.1061L14.8862 20.5274Z" fill="#F3BA2F"/>
<path d="M0.203125 24.3584L5.62639 18.9352L11.0497 24.3584L5.62639 29.7816L0.203125 24.3584Z" fill="#F3BA2F"/>
<path d="M14.8781 28.1903L24.2008 37.5128L33.5272 28.1865L38.9525 33.6041L38.9487 33.6079L24.2008 48.3593L9.4529 33.6155L9.44531 33.6079L14.8781 28.1903Z" fill="#F3BA2F"/>
<path d="M37.3516 24.3584L42.7748 18.9352L48.1981 24.3584L42.7748 29.7816L37.3516 24.3584Z" fill="#F3BA2F"/>
<path d="M29.7129 24.3554L24.2118 18.8506L20.1438 22.9185L19.6737 23.3848L18.7107 24.3478L18.7031 24.3554L18.7107 24.3667L24.2118 29.8639L29.7129 24.3592L29.7167 24.3554H29.7129Z" fill="#F3BA2F"/>
</g>
</g>
<defs>
<clipPath id="clip0_4009_52055">
<rect width="48" height="48" fill="white" transform="translate(0.203125)"/>
</clipPath>
<clipPath id="clip1_4009_52055">
<rect width="48" height="48" fill="white" transform="translate(0.203125)"/>
</clipPath>
</defs>
</svg>
