<svg width="49" height="48" viewBox="0 0 49 48" fill="none" xmlns="http://www.w3.org/2000/svg">
<path fill-rule="evenodd" clip-rule="evenodd" d="M3.80469 11.9764V35.9291L24.4069 47.907L45.0047 35.9291V11.9764L24.4069 0L3.80469 11.9764ZM5.6184 34.8787V13.0312L24.4069 2.10234L43.1969 13.0312V34.8787L24.4069 45.8046L5.6184 34.8787Z" fill="#FEFEFE"/>
<path fill-rule="evenodd" clip-rule="evenodd" d="M32.4837 10.3408H16.2962L14.4204 18.651H34.4348L32.4837 10.3408ZM19.1689 30.0889V24.566L14.3717 21.4961L8.94531 25.5587L16.342 38.5116H19.2959L22.7904 35.236V33.5893L19.1689 30.0889Z" fill="#FEFEFE"/>
<path fill-rule="evenodd" clip-rule="evenodd" d="M29.6647 19.9062H19.1797L20.9461 24.5489L20.4085 29.7522H24.4037L28.4358 29.7329L27.9337 24.5489L29.6647 19.9062Z" fill="#FEFEFE"/>
<path fill-rule="evenodd" clip-rule="evenodd" d="M34.4641 21.46L29.7246 24.5669V30.0898L26.1016 33.5902V35.2369L29.5946 38.4754H32.5131L39.8728 25.5596L34.4641 21.46Z" fill="#FEFEFE"/>
</svg>
