<svg width="49" height="48" viewBox="0 0 49 48" fill="none" xmlns="http://www.w3.org/2000/svg">
<g clip-path="url(#clip0_4169_13873)">
<path d="M30.1966 16.1212C29.6406 22.3375 23.3683 27.962 21.2479 31.5142C19.1584 35.0147 18.4682 38.3181 20.1224 44.8819C20.152 44.9992 20.0372 45.1045 19.9254 45.0558C17.7598 44.1146 10.0078 40.6163 10.0078 31.3725C10.0078 19.0679 23.8999 18.7513 22.9526 1.75906C22.946 1.64111 23.0764 1.55733 23.1761 1.62222C27.8842 4.68621 30.7432 10.0085 30.1966 16.1212Z" fill="#0CA28B"/>
<path d="M21.1469 45.2777C21.0903 45.2595 21.0504 45.2078 21.0472 45.149C20.8207 41.0094 23.0444 38.3212 25.5421 36.3341C31.2553 31.7892 34.6786 25.5793 32.8327 18.3917C32.7963 18.2491 32.9677 18.1466 33.0703 18.2529C34.542 19.7773 36.1855 22.2871 37.0316 24.0372C40.5273 31.4707 38.6616 39.9894 30.297 44.2884C27.6327 45.5976 24.4604 46.3396 21.1469 45.2777Z" fill="#3BBEAA"/>
</g>
<defs>
<clipPath id="clip0_4169_13873">
<rect width="28.8" height="44.8" fill="white" transform="translate(10.0078 1.59961)"/>
</clipPath>
</defs>
</svg>
