<svg width="49" height="48" viewBox="0 0 49 48" fill="none" xmlns="http://www.w3.org/2000/svg">
<g clip-path="url(#clip0_4169_5030)">
<path fill-rule="evenodd" clip-rule="evenodd" d="M16.0169 23.9784L30.584 38.1781L39.7788 29.2166C41.4229 27.7737 43.9383 27.8379 45.5027 29.3627C47.0672 30.8874 47.133 33.3389 45.6526 34.9414L33.5186 46.7696C31.8888 48.3319 29.2747 48.3319 27.6448 46.7696L10.1386 29.7032V39.8471C10.1386 42.0858 8.27645 43.9006 5.97943 43.9006C3.68241 43.9006 1.82031 42.0858 1.82031 39.8471V8.09659C1.82031 5.85786 3.68241 4.04302 5.97943 4.04302C8.27645 4.04302 10.1386 5.85786 10.1386 8.09659V18.2404L27.6425 1.17843C29.2719 -0.384997 31.887 -0.384997 33.5164 1.17843L45.6594 13.0045C47.1398 14.6069 47.0739 17.0585 45.5095 18.5832C43.9451 20.1079 41.4297 20.1721 39.7855 18.7293L30.5908 9.76779L16.0169 23.9784ZM30.5908 19.9205C28.9065 19.9196 27.3876 20.9077 26.7424 22.424C26.0973 23.9403 26.4529 25.686 27.6436 26.8471C28.8342 28.0081 30.6252 28.3557 32.1813 27.7277C33.7375 27.0998 34.7521 25.6199 34.7521 23.9784C34.7527 22.9022 34.3146 21.8698 33.5342 21.1084C32.7538 20.3469 31.695 19.9188 30.5908 19.9182V19.9205Z" fill="#23AF91"/>
</g>
<defs>
<clipPath id="clip0_4169_5030">
<rect width="45.1765" height="48" fill="white" transform="translate(1.82031)"/>
</clipPath>
</defs>
</svg>
