<svg width="49" height="48" viewBox="0 0 49 48" fill="none" xmlns="http://www.w3.org/2000/svg">
<g clip-path="url(#clip0_4169_3156)">
<path fill-rule="evenodd" clip-rule="evenodd" d="M9.265 8.0498C8.54 4.2798 11.44 0.799805 15.21 0.799805C18.545 0.799805 21.3 3.5548 21.3 6.8898V14.4298C22.17 14.4298 23.04 14.2848 23.91 14.2848C24.78 14.2848 25.505 14.2848 26.375 14.4298V6.8898C26.375 3.5548 29.13 0.799805 32.465 0.799805C36.235 0.799805 39.135 4.2798 38.555 8.0498L36.96 16.8948C42.615 19.3598 46.965 23.7098 46.965 29.0748V32.4098C46.965 36.9048 44.065 40.6748 39.86 43.1398C35.655 45.7498 30.145 47.1998 23.91 47.1998C17.675 47.1998 12.165 45.7498 7.96 43.1398C3.9 40.6748 1 36.9048 1 32.4098V29.0748C1 23.7098 5.205 19.3598 10.86 16.8948L9.265 8.0498ZM34.785 18.0548L36.67 7.6148C37.105 5.0048 35.22 2.5398 32.465 2.5398C30.145 2.5398 28.26 4.4248 28.26 6.7448V16.3148C27.68 16.1698 26.955 16.1698 26.375 16.1698C25.505 16.1698 24.78 16.0248 23.91 16.0248C23.04 16.0248 22.17 16.0248 21.3 16.1698C20.72 16.1698 19.995 16.3148 19.415 16.3148V6.8898C19.415 4.5698 17.53 2.6848 15.21 2.6848C12.6 2.6848 10.57 5.14981 11.15 7.75981L13.035 18.1998C6.945 20.5198 2.885 24.5798 2.885 29.2198V32.5548C2.885 39.6598 12.31 45.4598 23.91 45.4598C35.51 45.4598 44.935 39.6598 44.935 32.5548V29.2198C45.08 24.4348 41.02 20.3748 34.785 18.0548Z" fill="#633001"/>
<path d="M45.0813 32.4102C45.0813 39.5152 35.6562 45.3152 24.0563 45.3152C12.4563 45.3152 3.03125 39.5152 3.03125 32.4102V29.0752H45.2263V32.4102H45.0813Z" fill="#FEDC90"/>
<path fill-rule="evenodd" clip-rule="evenodd" d="M11.1512 7.75957C10.5712 5.14957 12.6013 2.68457 15.2113 2.68457C17.5313 2.68457 19.4163 4.56957 19.4163 6.88957V16.4596C20.8663 16.3146 22.3163 16.1696 23.9113 16.1696C25.3613 16.1696 26.8113 16.3146 28.2612 16.4596V6.88957C28.2612 4.56957 30.1463 2.68457 32.4663 2.68457C35.0763 2.68457 37.1063 5.14957 36.6713 7.75957L34.7863 18.1996C40.8763 20.5196 45.0813 24.5796 45.0813 29.2196C45.0813 36.3246 35.6562 42.1246 24.0563 42.1246C12.4563 42.1246 3.03125 36.3246 3.03125 29.2196C3.03125 24.5796 7.09125 20.5196 13.1812 18.1996L11.1512 7.75957Z" fill="#D1884F"/>
<path d="M18.1087 28.2046C18.1087 30.0896 17.0937 31.6846 15.7887 31.6846C14.4837 31.6846 13.4688 30.0896 13.4688 28.2046C13.4688 26.3196 14.4837 24.7246 15.7887 24.7246C17.0937 24.7246 18.1087 26.3196 18.1087 28.2046Z" fill="#633001"/>
<path d="M34.2025 28.2046C34.2025 30.0896 33.1875 31.6846 31.8825 31.6846C30.5775 31.6846 29.5625 30.0896 29.5625 28.2046C29.5625 26.3196 30.5775 24.7246 31.8825 24.7246C33.1875 24.7246 34.2025 26.3196 34.2025 28.2046Z" fill="#633001"/>
</g>
<defs>
<clipPath id="clip0_4169_3156">
<rect width="45.965" height="46.4" fill="white" transform="translate(1 0.799805)"/>
</clipPath>
</defs>
</svg>
